<?xml version="1.0" encoding="UTF-8" standalone="no"?>
<!-- Created with Inkscape (http://www.inkscape.org/) -->

<svg
   xmlns:dc="http://purl.org/dc/elements/1.1/"
   xmlns:cc="http://creativecommons.org/ns#"
   xmlns:rdf="http://www.w3.org/1999/02/22-rdf-syntax-ns#"
   xmlns:svg="http://www.w3.org/2000/svg"
   xmlns="http://www.w3.org/2000/svg"
   xmlns:sodipodi="http://sodipodi.sourceforge.net/DTD/sodipodi-0.dtd"
   xmlns:inkscape="http://www.inkscape.org/namespaces/inkscape"
   width="79.28653mm"
   height="31.913881mm"
   viewBox="0 0 79.28653 31.913881"
   version="1.1"
   id="svg1049"
   inkscape:version="0.92.2 (5c3e80d, 2017-08-06)"
   sodipodi:docname="notBoring.svg">
  <defs
     id="defs1043" />
  <sodipodi:namedview
     id="base"
     pagecolor="#ffffff"
     bordercolor="#666666"
     borderopacity="1.0"
     inkscape:pageopacity="0.0"
     inkscape:pageshadow="2"
     inkscape:zoom="0.35"
     inkscape:cx="-584.4529"
     inkscape:cy="-353.97602"
     inkscape:document-units="mm"
     inkscape:current-layer="layer1"
     showgrid="false"
     fit-margin-top="0"
     fit-margin-left="0"
     fit-margin-right="0"
     fit-margin-bottom="0"
     inkscape:window-width="1299"
     inkscape:window-height="713"
     inkscape:window-x="67"
     inkscape:window-y="27"
     inkscape:window-maximized="1" />
  <metadata
     id="metadata1046">
    <rdf:RDF>
      <cc:Work
         rdf:about="">
        <dc:format>image/svg+xml</dc:format>
        <dc:type
           rdf:resource="http://purl.org/dc/dcmitype/StillImage" />
        <dc:title></dc:title>
      </cc:Work>
    </rdf:RDF>
  </metadata>
  <g
     inkscape:label="Layer 1"
     inkscape:groupmode="layer"
     id="layer1"
     transform="translate(-141.7853,-23.263297)">
    <g
       transform="translate(130.50217,11.795071)"
       id="g1041">
      <g
         id="text12"
         style="font-style:normal;font-variant:normal;font-weight:normal;font-stretch:normal;font-size:10.58333302px;line-height:1.25;font-family:Pacifico;-inkscape-font-specification:Pacifico;letter-spacing:0px;word-spacing:0px;fill:#de392d;fill-opacity:1;stroke:none;stroke-width:0.26458332"
         aria-label="Totally Not ">
        <path
           inkscape:connector-curvature="0"
           id="path1002"
           style="font-style:normal;font-variant:normal;font-weight:normal;font-stretch:normal;font-family:Pacifico;-inkscape-font-specification:Pacifico;fill:#de392d;fill-opacity:1;stroke-width:0.26458332"
           d="m 32.528431,12.632393 q 0.328083,0.0635 0.486833,0.22225 0.169333,0.15875 0.169333,0.370416 0,0.34925 -0.201083,0.508 -0.1905,0.15875 -0.613833,0.127 -0.9525,-0.07408 -1.49225,-0.09525 -0.529167,-0.03175 -1.397,-0.04233 -0.391583,1.947333 -0.719667,3.915833 -0.116416,0.719667 -0.243416,1.672167 -0.127,0.941917 -0.169334,1.524 -0.02117,0.306917 -0.254,0.47625 -0.232833,0.15875 -0.560916,0.15875 -0.34925,0 -0.53975,-0.169333 -0.1905,-0.169334 -0.1905,-0.4445 0,-0.254 0.07408,-0.836084 0.08467,-0.592666 0.1905,-1.23825 0.116417,-0.645583 0.179917,-1.121833 0.116416,-0.804333 0.264583,-1.598083 0.148167,-0.79375 0.296333,-1.502834 0.03175,-0.15875 0.07408,-0.359833 0.04233,-0.211667 0.09525,-0.465667 -1.037167,0.03175 -1.629834,0.169334 -0.592666,0.137583 -0.846666,0.391583 -0.243417,0.243417 -0.243417,0.635 0,0.359833 0.211667,0.687917 0.04233,0.07408 0.04233,0.15875 0,0.201083 -0.243417,0.381 -0.232833,0.169333 -0.486833,0.169333 -0.179917,0 -0.296333,-0.105833 -0.211667,-0.179917 -0.34925,-0.508 -0.137584,-0.338667 -0.137584,-0.762 0,-0.899584 0.582084,-1.439334 0.592666,-0.550333 1.788583,-0.804333 1.2065,-0.254 3.090333,-0.254 1.164167,0 1.852083,0.04233 0.6985,0.04233 1.217084,0.137584 z" />
        <path
           inkscape:connector-curvature="0"
           id="path1004"
           style="font-style:normal;font-variant:normal;font-weight:normal;font-stretch:normal;font-family:Pacifico;-inkscape-font-specification:Pacifico;fill:#de392d;fill-opacity:1;stroke-width:0.26458332"
           d="m 35.961895,18.167476 q 0.137584,0 0.211667,0.137583 0.07408,0.137584 0.07408,0.34925 0,0.508 -0.306916,0.60325 -0.635,0.22225 -1.397,0.254 -0.201084,0.889 -0.79375,1.42875 -0.592667,0.529167 -1.344084,0.529167 -0.635,0 -1.090083,-0.306917 -0.4445,-0.306916 -0.677333,-0.814916 -0.232833,-0.508 -0.232833,-1.100667 0,-0.804333 0.306916,-1.42875 0.306917,-0.635 0.846667,-0.98425 0.53975,-0.359833 1.195916,-0.359833 0.804334,0 1.291167,0.560916 0.497417,0.550334 0.582083,1.36525 0.497417,-0.03175 1.185334,-0.211666 0.08467,-0.02117 0.148166,-0.02117 z m -3.471333,2.180167 q 0.338667,0 0.582083,-0.275167 0.254,-0.275167 0.338667,-0.79375 -0.328083,-0.22225 -0.508,-0.582083 -0.169333,-0.359834 -0.169333,-0.762 0,-0.169334 0.03175,-0.338667 h -0.05292 q -0.423333,0 -0.709083,0.41275 -0.275167,0.402167 -0.275167,1.143 0,0.582083 0.22225,0.889 0.232833,0.306917 0.53975,0.306917 z" />
        <path
           inkscape:connector-curvature="0"
           id="path1006"
           style="font-style:normal;font-variant:normal;font-weight:normal;font-stretch:normal;font-family:Pacifico;-inkscape-font-specification:Pacifico;fill:#de392d;fill-opacity:1;stroke-width:0.26458332"
           d="m 40.328182,19.056476 q 0.137583,0 0.211667,0.127 0.08467,0.127 0.08467,0.34925 0,0.423333 -0.201083,0.656167 -0.455083,0.560916 -0.994833,0.92075 -0.53975,0.359833 -1.23825,0.359833 -2.159,0 -2.159,-3.037417 0,-0.465666 0.03175,-0.941916 h -0.41275 q -0.3175,0 -0.433917,-0.116417 -0.105833,-0.116417 -0.105833,-0.370417 0,-0.592666 0.47625,-0.592666 h 0.60325 q 0.179917,-1.164167 0.550333,-2.12725 0.370417,-0.963084 0.889,-1.534584 0.529167,-0.5715 1.132417,-0.5715 0.4445,0 0.6985,0.391584 0.254,0.391583 0.254,0.98425 0,1.640416 -1.375833,2.8575 h 1.185333 q 0.169333,0 0.243417,0.07408 0.07408,0.07408 0.07408,0.275167 0,0.73025 -1.195917,0.73025 h -1.291166 q -0.02117,0.529166 -0.02117,0.8255 0,1.100666 0.254,1.545166 0.264583,0.4445 0.8255,0.4445 0.455083,0 0.804333,-0.275166 0.34925,-0.275167 0.8255,-0.8255 0.127,-0.148167 0.28575,-0.148167 z m -1.852083,-5.863167 q -0.15875,0 -0.359833,0.402167 -0.1905,0.391583 -0.370417,1.100667 -0.169333,0.6985 -0.28575,1.55575 0.624417,-0.53975 0.931333,-1.2065 0.3175,-0.677334 0.3175,-1.227667 0,-0.624417 -0.232833,-0.624417 z" />
        <path
           inkscape:connector-curvature="0"
           id="path1008"
           style="font-style:normal;font-variant:normal;font-weight:normal;font-stretch:normal;font-family:Pacifico;-inkscape-font-specification:Pacifico;fill:#de392d;fill-opacity:1;stroke-width:0.26458332"
           d="m 41.064551,21.469476 q -0.656167,0 -1.04775,-0.47625 -0.391584,-0.47625 -0.391584,-1.248833 0,-0.846667 0.391584,-1.598084 0.391583,-0.762 1.037166,-1.217083 0.656167,-0.465667 1.386417,-0.465667 0.232833,0 0.306917,0.09525 0.08467,0.08467 0.137583,0.3175 0.22225,-0.04233 0.465667,-0.04233 0.518583,0 0.518583,0.370417 0,0.22225 -0.15875,1.058333 -0.243417,1.217083 -0.243417,1.693333 0,0.15875 0.07408,0.254 0.08467,0.09525 0.211666,0.09525 0.201084,0 0.486834,-0.254 0.28575,-0.264583 0.772583,-0.846666 0.127,-0.148167 0.28575,-0.148167 0.137583,0 0.211667,0.127 0.08467,0.127 0.08467,0.34925 0,0.423333 -0.201083,0.656167 -0.433917,0.53975 -0.92075,0.910166 -0.486833,0.370417 -0.941917,0.370417 -0.34925,0 -0.645583,-0.232833 -0.28575,-0.243417 -0.433917,-0.656167 -0.550333,0.889 -1.386416,0.889 z m 0.381,-1.068917 q 0.232833,0 0.4445,-0.275166 0.211666,-0.275167 0.306916,-0.73025 l 0.391584,-1.947334 q -0.4445,0.01058 -0.8255,0.338667 -0.370417,0.3175 -0.592667,0.846667 -0.22225,0.529166 -0.22225,1.121833 0,0.328083 0.127,0.486833 0.137583,0.15875 0.370417,0.15875 z" />
        <path
           inkscape:connector-curvature="0"
           id="path1010"
           style="font-style:normal;font-variant:normal;font-weight:normal;font-stretch:normal;font-family:Pacifico;-inkscape-font-specification:Pacifico;fill:#de392d;fill-opacity:1;stroke-width:0.26458332"
           d="m 48.755491,19.056476 q 0.137584,0 0.211667,0.127 0.08467,0.127 0.08467,0.34925 0,0.423333 -0.201084,0.656167 -0.455083,0.560916 -0.994833,0.92075 -0.529167,0.359833 -1.2065,0.359833 -0.931333,0 -1.386416,-0.846667 -0.4445,-0.846666 -0.4445,-2.19075 0,-1.291166 0.328083,-2.942166 0.338667,-1.651 0.98425,-2.836334 0.656166,-1.185333 1.55575,-1.185333 0.508,0 0.79375,0.47625 0.296333,0.465667 0.296333,1.344083 0,1.259417 -0.6985,2.921 -0.6985,1.661584 -1.894416,3.291417 0.07408,0.433917 0.243416,0.624417 0.169333,0.179916 0.4445,0.179916 0.433917,0 0.762,-0.243416 0.328083,-0.254 0.836083,-0.85725 0.127,-0.148167 0.28575,-0.148167 z m -1.30175,-6.5405 q -0.243416,0 -0.550333,0.878417 -0.306917,0.878416 -0.53975,2.180166 -0.232833,1.30175 -0.254,2.497667 0.751417,-1.23825 1.195917,-2.4765 0.4445,-1.248833 0.4445,-2.275417 0,-0.804333 -0.296334,-0.804333 z" />
        <path
           inkscape:connector-curvature="0"
           id="path1012"
           style="font-style:normal;font-variant:normal;font-weight:normal;font-stretch:normal;font-family:Pacifico;-inkscape-font-specification:Pacifico;fill:#de392d;fill-opacity:1;stroke-width:0.26458332"
           d="m 52.207478,19.056476 q 0.137583,0 0.211666,0.127 0.08467,0.127 0.08467,0.34925 0,0.423333 -0.201083,0.656167 -0.455084,0.560916 -0.994834,0.92075 -0.529166,0.359833 -1.2065,0.359833 -0.931333,0 -1.386416,-0.846667 -0.4445,-0.846666 -0.4445,-2.19075 0,-1.291166 0.328083,-2.942166 0.338667,-1.651 0.98425,-2.836334 0.656167,-1.185333 1.55575,-1.185333 0.508,0 0.79375,0.47625 0.296333,0.465667 0.296333,1.344083 0,1.259417 -0.6985,2.921 -0.6985,1.661584 -1.894416,3.291417 0.07408,0.433917 0.243416,0.624417 0.169334,0.179916 0.4445,0.179916 0.433917,0 0.762,-0.243416 0.328084,-0.254 0.836084,-0.85725 0.127,-0.148167 0.28575,-0.148167 z m -1.30175,-6.5405 q -0.243417,0 -0.550334,0.878417 -0.306916,0.878416 -0.53975,2.180166 -0.232833,1.30175 -0.254,2.497667 0.751417,-1.23825 1.195917,-2.4765 0.4445,-1.248833 0.4445,-2.275417 0,-0.804333 -0.296333,-0.804333 z" />
        <path
           inkscape:connector-curvature="0"
           id="path1014"
           style="font-style:normal;font-variant:normal;font-weight:normal;font-stretch:normal;font-family:Pacifico;-inkscape-font-specification:Pacifico;fill:#de392d;fill-opacity:1;stroke-width:0.26458332"
           d="m 55.352545,16.484726 q 0.243417,0 0.338667,0.0635 0.09525,0.0635 0.09525,0.211667 0,0.254 -0.275167,1.80975 -0.243416,1.49225 -0.28575,1.767416 -0.391583,2.719917 -1.079499,4.307417 -0.687917,1.5875 -1.830917,1.5875 -0.53975,0 -0.878417,-0.338667 -0.338666,-0.328083 -0.338666,-0.867833 0,-0.497417 0.22225,-1.016 0.232833,-0.518584 0.846666,-1.195917 0.624417,-0.66675 1.756834,-1.534583 l 0.03175,-0.243417 q 0.07408,-0.391583 0.169333,-1.121833 -0.211667,0.762 -0.592667,1.164167 -0.381,0.391583 -0.804333,0.391583 -0.47625,0 -0.783167,-0.433917 -0.296333,-0.4445 -0.296333,-1.100666 0,-0.79375 0.105833,-1.449917 0.105834,-0.66675 0.34925,-1.407583 0.105834,-0.3175 0.296334,-0.455084 0.1905,-0.137583 0.60325,-0.137583 0.232833,0 0.3175,0.07408 0.09525,0.07408 0.09525,0.22225 0,0.08467 -0.116417,0.5715 -0.105833,0.391584 -0.169333,0.709084 -0.08467,0.433916 -0.148167,0.836083 -0.0635,0.391583 -0.0635,0.645583 0,0.402167 0.22225,0.402167 0.15875,0 0.391583,-0.3175 0.243417,-0.3175 0.508,-0.963083 0.275167,-0.645584 0.529167,-1.5875 0.08467,-0.3175 0.254,-0.455084 0.179917,-0.137583 0.529166,-0.137583 z m -2.920999,8.720666 q 0.264583,0 0.592666,-0.613833 0.328084,-0.613833 0.656167,-2.042583 -0.814917,0.687916 -1.185333,1.248833 -0.359834,0.5715 -0.359834,0.994833 0,0.179917 0.0635,0.296334 0.07408,0.116416 0.232834,0.116416 z" />
        <path
           inkscape:connector-curvature="0"
           id="path1016"
           style="font-style:normal;font-variant:normal;font-weight:normal;font-stretch:normal;font-family:Pacifico;-inkscape-font-specification:Pacifico;fill:#de392d;fill-opacity:1;stroke-width:0.26458332"
           d="m 61.161142,21.469476 q -0.391583,0 -0.560917,-0.169333 -0.169333,-0.179917 -0.169333,-0.66675 0,-0.328084 0.0635,-0.79375 0.0635,-0.465667 0.22225,-1.407584 0.02117,-0.127 0.169333,-1.026583 0.148167,-0.910167 0.264584,-1.905 0.105833,-0.846667 0.105833,-1.27 0,-0.47625 -0.34925,-0.47625 -0.264583,0 -0.66675,0.28575 -0.391583,0.275167 -0.846667,0.889 -0.148166,0.201083 -0.328083,0.201083 -0.148167,0 -0.264583,-0.137583 -0.105834,-0.148167 -0.105834,-0.328083 0,-0.179917 0.0635,-0.338667 0.0635,-0.169333 0.232834,-0.402167 0.518583,-0.709083 1.153583,-1.090083 0.635,-0.391583 1.3335,-0.391583 0.582083,0 0.867833,0.359833 0.296334,0.359833 0.296334,1.04775 0,0.613833 -0.169334,1.778 0.529167,-1.566333 1.344083,-2.370667 0.814917,-0.814916 1.915584,-0.814916 0.867833,0 1.30175,0.497416 0.4445,0.486834 0.4445,1.312334 0,0.465666 -0.137584,1.132416 l -0.645583,3.026834 q -0.105833,0.529166 -0.105833,0.910166 0,0.4445 0.201083,0.66675 0.211667,0.22225 0.582083,0.22225 0.34925,0 0.677334,-0.232833 0.338666,-0.232833 0.79375,-0.772583 0.127,-0.148167 0.28575,-0.148167 0.137583,0 0.211666,0.127 0.08467,0.127 0.08467,0.34925 0,0.41275 -0.201083,0.656167 -0.550334,0.66675 -1.090084,0.973666 -0.53975,0.306917 -1.132416,0.306917 -0.899584,0 -1.407584,-0.529167 -0.508,-0.53975 -0.508,-1.439333 0,-0.34925 0.05292,-0.762 0.0635,-0.41275 0.201083,-1.04775 l 0.423334,-1.93675 q 0.02117,-0.09525 0.07408,-0.338667 0.05292,-0.243416 0.08467,-0.455083 0.03175,-0.22225 0.03175,-0.433917 0,-0.338666 -0.1905,-0.53975 -0.1905,-0.201083 -0.53975,-0.201083 -0.635,0 -1.27,0.677333 -0.635,0.677334 -1.17475,2.19075 -0.53975,1.502834 -0.846667,3.852334 -0.07408,0.53975 -0.22225,0.751416 -0.137583,0.211667 -0.550333,0.211667 z" />
        <path
           inkscape:connector-curvature="0"
           id="path1018"
           style="font-style:normal;font-variant:normal;font-weight:normal;font-stretch:normal;font-family:Pacifico;-inkscape-font-specification:Pacifico;fill:#de392d;fill-opacity:1;stroke-width:0.26458332"
           d="m 73.975078,18.167476 q 0.137583,0 0.211667,0.137583 0.07408,0.137584 0.07408,0.34925 0,0.508 -0.306917,0.60325 -0.635,0.22225 -1.397,0.254 -0.201083,0.889 -0.79375,1.42875 -0.592666,0.529167 -1.344083,0.529167 -0.635,0 -1.090083,-0.306917 -0.4445,-0.306916 -0.677334,-0.814916 -0.232833,-0.508 -0.232833,-1.100667 0,-0.804333 0.306917,-1.42875 0.306916,-0.635 0.846666,-0.98425 0.53975,-0.359833 1.195917,-0.359833 0.804333,0 1.291167,0.560916 0.497416,0.550334 0.582083,1.36525 0.497417,-0.03175 1.185333,-0.211666 0.08467,-0.02117 0.148167,-0.02117 z m -3.471333,2.180167 q 0.338666,0 0.582083,-0.275167 0.254,-0.275167 0.338667,-0.79375 -0.328084,-0.22225 -0.508,-0.582083 -0.169334,-0.359834 -0.169334,-0.762 0,-0.169334 0.03175,-0.338667 h -0.05292 q -0.423334,0 -0.709084,0.41275 -0.275166,0.402167 -0.275166,1.143 0,0.582083 0.22225,0.889 0.232833,0.306917 0.53975,0.306917 z" />
        <path
           inkscape:connector-curvature="0"
           id="path1020"
           style="font-style:normal;font-variant:normal;font-weight:normal;font-stretch:normal;font-family:Pacifico;-inkscape-font-specification:Pacifico;fill:#de392d;fill-opacity:1;stroke-width:0.26458332"
           d="m 75.367449,17.490143 q -0.02117,0.529166 -0.02117,0.8255 0,0.762 0.07408,1.195916 0.08467,0.423334 0.264583,0.613834 0.1905,0.179916 0.518583,0.179916 0.169334,0 0.402167,-0.105833 0.232833,-0.105833 0.423333,-0.275167 0.116417,-0.105833 0.232834,-0.105833 0.127,0 0.201083,0.148167 0.08467,0.137583 0.08467,0.338666 0,0.201084 -0.08467,0.391584 -0.07408,0.1905 -0.232833,0.3175 -0.550334,0.455083 -1.248834,0.455083 -1.005416,0 -1.471083,-0.836083 -0.465666,-0.846667 -0.465666,-2.201334 0,-0.465666 0.03175,-0.941916 h -0.41275 q -0.3175,0 -0.433917,-0.116417 -0.105833,-0.116417 -0.105833,-0.370417 0,-0.592666 0.47625,-0.592666 h 0.60325 q 0.179916,-1.164167 0.550333,-2.12725 0.370417,-0.963084 0.889,-1.534584 0.529166,-0.5715 1.132416,-0.5715 0.4445,0 0.6985,0.391584 0.254,0.391583 0.254,0.98425 0,1.640416 -1.375833,2.8575 h 1.185333 q 0.169334,0 0.243417,0.07408 0.07408,0.07408 0.07408,0.275167 0,0.73025 -1.195916,0.73025 z m 1.121833,-4.296834 q -0.15875,0 -0.359833,0.402167 -0.1905,0.391583 -0.370417,1.100667 -0.169333,0.6985 -0.28575,1.55575 0.624417,-0.53975 0.931334,-1.2065 0.3175,-0.677334 0.3175,-1.227667 0,-0.624417 -0.232834,-0.624417 z" />
      </g>
      <g
         id="text4683"
         style="font-style:normal;font-variant:normal;font-weight:800;font-stretch:normal;font-size:20.87680817px;line-height:1.25;font-family:Raleway;-inkscape-font-specification:'Raleway Ultra-Bold';letter-spacing:0px;word-spacing:0px;fill:#000000;fill-opacity:1;stroke:none;stroke-width:0.5219202"
         aria-label="BORING">
        <path
           inkscape:connector-curvature="0"
           id="path989"
           style="font-style:normal;font-variant:normal;font-weight:800;font-stretch:normal;font-family:Raleway;-inkscape-font-specification:'Raleway Ultra-Bold';stroke-width:0.5219202"
           d="m 23.537821,39.457268 q 0,0.960333 -0.396659,1.670145 -0.396659,0.709811 -1.085594,1.189978 -0.688935,0.45929 -1.607514,0.709811 -0.91858,0.229645 -1.941543,0.229645 H 11.283135 V 28.434314 h 8.246339 q 0.772442,0 1.398746,0.334029 0.626305,0.334028 1.064718,0.876825 0.438413,0.521921 0.668057,1.210855 0.250522,0.668058 0.250522,1.37787 0,1.064717 -0.542797,2.004173 -0.52192,0.939457 -1.586637,1.419623 1.273485,0.375783 2.004173,1.336116 0.751565,0.960333 0.751565,2.463463 z m -3.486427,-0.688934 q 0,-0.688935 -0.396659,-1.169102 -0.396659,-0.480166 -1.002087,-0.480166 h -3.945716 v 3.235905 h 3.799579 q 0.668057,0 1.10647,-0.438413 0.438413,-0.438413 0.438413,-1.148224 z m -5.344462,-7.411267 v 3.068891 h 3.361166 q 0.563673,0 1.002086,-0.375783 0.438413,-0.375783 0.438413,-1.169101 0,-0.730689 -0.396659,-1.127348 -0.375782,-0.396659 -0.91858,-0.396659 z" />
        <path
           inkscape:connector-curvature="0"
           id="path991"
           style="font-style:normal;font-variant:normal;font-weight:800;font-stretch:normal;font-family:Raleway;-inkscape-font-specification:'Raleway Ultra-Bold';stroke-width:0.5219202"
           d="m 32.047078,43.382108 q -1.649268,0 -3.006261,-0.647181 -1.356992,-0.647181 -2.317325,-1.691021 -0.960333,-1.064718 -1.50313,-2.42171 -0.521921,-1.356993 -0.521921,-2.797492 0,-1.461377 0.542797,-2.818369 0.563674,-1.356993 1.544884,-2.379957 1.002087,-1.04384 2.359079,-1.649267 1.356993,-0.626305 2.964507,-0.626305 1.649268,0 3.006261,0.647181 1.356992,0.647181 2.317325,1.711899 0.960334,1.064717 1.482254,2.421709 0.52192,1.356993 0.52192,2.755739 0,1.461377 -0.563674,2.818369 -0.542797,1.356993 -1.524007,2.400833 -0.98121,1.022964 -2.338202,1.649268 -1.356993,0.626304 -2.964507,0.626304 z m -3.86221,-7.515651 q 0,0.855949 0.250522,1.670145 0.250522,0.793319 0.730688,1.419623 0.501044,0.626304 1.231732,1.002087 0.730688,0.375782 1.670145,0.375782 0.98121,0 1.711898,-0.396659 0.730688,-0.396659 1.210855,-1.022964 0.480166,-0.647181 0.709811,-1.440499 0.250522,-0.814196 0.250522,-1.649268 0,-0.855949 -0.250522,-1.649268 -0.250521,-0.814196 -0.751565,-1.419623 -0.501043,-0.626304 -1.231732,-0.98121 -0.709811,-0.375783 -1.649267,-0.375783 -0.98121,0 -1.711899,0.39666 -0.709811,0.375782 -1.210855,1.002086 -0.480166,0.626305 -0.730688,1.4405 -0.229645,0.793319 -0.229645,1.628391 z" />
        <path
           inkscape:connector-curvature="0"
           id="path993"
           style="font-style:normal;font-variant:normal;font-weight:800;font-stretch:normal;font-family:Raleway;-inkscape-font-specification:'Raleway Ultra-Bold';stroke-width:0.5219202"
           d="M 41.415871,43.256847 V 28.434314 h 6.680579 q 1.04384,0 1.920666,0.438413 0.897703,0.438413 1.544884,1.148224 0.647181,0.709811 1.002087,1.607514 0.375782,0.897703 0.375782,1.816283 0,0.688934 -0.167014,1.336115 -0.167015,0.626305 -0.480167,1.189978 -0.313152,0.563674 -0.772442,1.022964 -0.438413,0.438413 -1.002086,0.751565 l 3.256782,5.511477 h -3.86221 l -2.839246,-4.780789 h -2.233818 v 4.780789 z m 3.423797,-7.766172 h 3.131521 q 0.605427,0 1.04384,-0.563674 0.438413,-0.584551 0.438413,-1.482253 0,-0.91858 -0.501043,-1.461377 -0.501043,-0.542797 -1.085594,-0.542797 h -3.027137 z" />
        <path
           inkscape:connector-curvature="0"
           id="path995"
           style="font-style:normal;font-variant:normal;font-weight:800;font-stretch:normal;font-family:Raleway;-inkscape-font-specification:'Raleway Ultra-Bold';stroke-width:0.5219202"
           d="M 55.401703,43.256847 V 28.434314 H 58.8255 v 14.822533 z" />
        <path
           inkscape:connector-curvature="0"
           id="path997"
           style="font-style:normal;font-variant:normal;font-weight:800;font-stretch:normal;font-family:Raleway;-inkscape-font-specification:'Raleway Ultra-Bold';stroke-width:0.5219202"
           d="m 65.10485,34.780863 v 8.475984 H 61.681054 V 28.434314 h 2.672231 l 6.910224,8.705629 v -8.705629 h 3.423796 v 14.822533 h -2.755738 z" />
        <path
           inkscape:connector-curvature="0"
           id="path999"
           style="font-style:normal;font-variant:normal;font-weight:800;font-stretch:normal;font-family:Raleway;-inkscape-font-specification:'Raleway Ultra-Bold';stroke-width:0.5219202"
           d="m 87.730417,41.795471 q -1.691022,1.56576 -3.903963,1.56576 -1.461377,0 -2.755739,-0.542797 -1.294362,-0.563673 -2.275572,-1.56576 -0.960333,-1.002087 -1.524007,-2.400833 -0.563674,-1.419623 -0.563674,-3.110645 0,-1.524007 0.563674,-2.880999 0.563674,-1.356993 1.544884,-2.359079 1.002086,-1.002087 2.359079,-1.586638 1.356993,-0.58455 2.922753,-0.58455 2.066804,0 3.611688,0.876825 1.544884,0.85595 2.317326,2.35908 l -2.546971,1.920666 q -0.501043,-1.002087 -1.461376,-1.544884 -0.939457,-0.563673 -2.045928,-0.563673 -0.855949,0 -1.56576,0.354905 -0.688935,0.334029 -1.189978,0.960333 -0.501044,0.605428 -0.772442,1.419623 -0.271399,0.814196 -0.271399,1.753652 0,0.960333 0.292276,1.774529 0.292275,0.814196 0.814195,1.419623 0.52192,0.584551 1.231732,0.918579 0.730688,0.334029 1.607514,0.334029 2.004174,0 3.611688,-1.858035 v -0.45929 h -2.881 v -2.48434 h 5.720246 v 7.745295 h -2.839246 z" />
      </g>
    </g>
  </g>
</svg>
