<?xml version="1.0" encoding="UTF-8" standalone="no"?>
<!-- Created with Inkscape (http://www.inkscape.org/) -->

<svg
   xmlns:dc="http://purl.org/dc/elements/1.1/"
   xmlns:cc="http://creativecommons.org/ns#"
   xmlns:rdf="http://www.w3.org/1999/02/22-rdf-syntax-ns#"
   xmlns:svg="http://www.w3.org/2000/svg"
   xmlns="http://www.w3.org/2000/svg"
   xmlns:sodipodi="http://sodipodi.sourceforge.net/DTD/sodipodi-0.dtd"
   xmlns:inkscape="http://www.inkscape.org/namespaces/inkscape"
   width="456.42975"
   height="249.67792"
   viewBox="0 0 120.7637 66.060618"
   version="1.1"
   id="svg1417"
   inkscape:version="0.92.2 (5c3e80d, 2017-08-06)"
   sodipodi:docname="something_strange.svg">
  <defs
     id="defs1411">
    <clipPath
       clipPathUnits="userSpaceOnUse"
       id="clipPath1140">
      <rect
         style="opacity:1;fill:#ec0000;fill-opacity:1;stroke-width:0.22754924"
         id="rect1142"
         width="254"
         height="185.20833"
         x="-1658.9216"
         y="-268.25085" />
    </clipPath>
  </defs>
  <sodipodi:namedview
     id="base"
     pagecolor="#ffffff"
     bordercolor="#666666"
     borderopacity="1.0"
     inkscape:pageopacity="0.0"
     inkscape:pageshadow="2"
     inkscape:zoom="0.51479413"
     inkscape:cx="259.99406"
     inkscape:cy="-61.352167"
     inkscape:document-units="mm"
     inkscape:current-layer="layer1"
     showgrid="false"
     units="px"
     fit-margin-top="0"
     fit-margin-left="0"
     fit-margin-right="0"
     fit-margin-bottom="0"
     inkscape:window-width="1299"
     inkscape:window-height="713"
     inkscape:window-x="67"
     inkscape:window-y="27"
     inkscape:window-maximized="1" />
  <metadata
     id="metadata1414">
    <rdf:RDF>
      <cc:Work
         rdf:about="">
        <dc:format>image/svg+xml</dc:format>
        <dc:type
           rdf:resource="http://purl.org/dc/dcmitype/StillImage" />
        <dc:title></dc:title>
      </cc:Work>
    </rdf:RDF>
  </metadata>
  <g
     inkscape:label="Layer 1"
     inkscape:groupmode="layer"
     id="layer1"
     transform="translate(-76.202903,-52.190923)">
    <g
       id="g2011"
       transform="matrix(1.6896984,0,0,1.6896984,53.053094,-179.72493)">
      <g
         aria-label="Strange"
         style="font-style:normal;font-variant:normal;font-weight:normal;font-stretch:normal;font-size:21.16666603px;line-height:1.25;font-family:Pacifico;-inkscape-font-specification:Pacifico;letter-spacing:0px;word-spacing:0px;fill:#ce7726;fill-opacity:1;stroke:none;stroke-width:0.26458332"
         id="text1964">
        <path
           d="m 19.90239,166.88741 q -2.815167,0 -4.5085,-1.05833 -1.693333,-1.0795 -1.693333,-3.28083 0,-1.16417 0.402167,-1.778 0.402166,-0.61384 1.185333,-0.61384 0.5715,0 0.931333,0.29634 0.359833,0.29633 0.359833,0.762 0,0.42333 -0.0635,0.74083 0,0.0847 -0.04233,0.29633 -0.02117,0.21167 -0.02117,0.4445 0,0.9525 0.952499,1.41817 0.973667,0.46567 2.709334,0.46567 1.799166,0 2.815166,-0.635 1.016,-0.65617 1.016,-1.82034 0,-0.71966 -0.465666,-1.22766 -0.465667,-0.52917 -1.164167,-0.86784 -0.6985,-0.35983 -1.9685,-0.86783 -1.629833,-0.635 -2.667,-1.2065 -1.016,-0.5715 -1.756833,-1.54517 -0.719667,-0.99483 -0.719667,-2.45533 0,-1.524 0.804334,-2.70933 0.825499,-1.18534 2.349499,-1.8415 1.545167,-0.65617 3.6195,-0.65617 1.545167,0 2.836334,0.46567 1.291166,0.4445 2.053166,1.37583 0.783167,0.93133 0.783167,2.286 0,1.3335 -0.402167,2.01083 -0.402166,0.67734 -1.185333,0.67734 -0.550333,0 -0.931333,-0.33867 -0.359834,-0.33867 -0.359834,-0.80433 0,-0.40217 0.0635,-0.74084 0.0635,-0.635 0.0635,-0.80433 0,-0.889 -0.867833,-1.35467 -0.867833,-0.46566 -2.159,-0.46566 -1.820333,0 -2.794,0.67733 -0.9525,0.65617 -0.9525,1.86267 0,0.80433 0.486833,1.37583 0.508,0.5715 1.248834,0.9525 0.740833,0.381 2.074333,0.91017 1.608667,0.65616 2.582333,1.18533 0.973667,0.52917 1.651,1.43933 0.6985,0.91017 0.6985,2.24367 0,2.49767 -1.905,3.85233 -1.883833,1.3335 -5.058833,1.3335 z"
           style="font-style:normal;font-variant:normal;font-weight:normal;font-stretch:normal;font-size:21.16666603px;font-family:Pacifico;-inkscape-font-specification:Pacifico;fill:#ce7726;fill-opacity:1;stroke-width:0.26458332"
           id="path891"
           inkscape:connector-curvature="0" />
        <path
           d="m 37.906624,161.99791 q 0.275166,0 0.423333,0.254 0.169333,0.254 0.169333,0.6985 0,0.84667 -0.402166,1.31234 -0.910167,1.12183 -1.989667,1.8415 -1.0795,0.71966 -2.4765,0.71966 -4.318,0 -4.318,-6.07483 0,-0.93133 0.0635,-1.88383 h -0.8255 q -0.635,0 -0.867833,-0.23284 -0.211667,-0.23283 -0.211667,-0.74083 0,-1.18533 0.9525,-1.18533 h 1.2065 q 0.359834,-2.32834 1.100667,-4.2545 0.740833,-1.92617 1.778,-3.06917 1.058333,-1.143 2.264833,-1.143 0.889,0 1.397,0.78317 0.508,0.78316 0.508,1.9685 0,3.28083 -2.751667,5.715 h 2.370667 q 0.338667,0 0.486833,0.14816 0.148167,0.14817 0.148167,0.55034 0,1.4605 -2.391833,1.4605 h -2.582333 q -0.04233,1.05833 -0.04233,1.651 0,2.20133 0.508,3.09033 0.529167,0.889 1.651,0.889 0.910167,0 1.608667,-0.55033 0.6985,-0.55034 1.651,-1.651 0.254,-0.29634 0.5715,-0.29634 z m -3.704167,-11.72633 q -0.3175,0 -0.719667,0.80433 -0.380999,0.78317 -0.740833,2.20134 -0.338666,1.397 -0.5715,3.1115 1.248834,-1.0795 1.862667,-2.413 0.635,-1.35467 0.635,-2.45534 0,-1.24883 -0.465667,-1.24883 z"
           style="font-style:normal;font-variant:normal;font-weight:normal;font-stretch:normal;font-size:21.16666603px;font-family:Pacifico;-inkscape-font-specification:Pacifico;fill:#ce7726;fill-opacity:1;stroke-width:0.26458332"
           id="path893"
           inkscape:connector-curvature="0" />
        <path
           d="m 38.278694,166.82391 q -0.804333,0 -1.143,-0.84666 -0.3175,-0.84667 -0.3175,-2.70934 0,-2.75166 0.783167,-5.22816 0.1905,-0.61384 0.613833,-0.889 0.4445,-0.29634 1.227667,-0.29634 0.423333,0 0.592667,0.10584 0.169333,0.10583 0.169333,0.40216 0,0.33867 -0.3175,1.524 -0.211667,0.84667 -0.338667,1.48167 -0.127,0.635 -0.211666,1.56633 0.6985,-1.82033 1.566333,-2.96333 0.867833,-1.143 1.693333,-1.62983 0.846667,-0.48684 1.545167,-0.48684 1.375833,0 1.375833,1.37584 0,0.27516 -0.1905,1.3335 -0.169333,0.84666 -0.169333,1.05833 0,0.74083 0.529166,0.74083 0.592667,0 1.524,-0.93133 0.275167,-0.27517 0.5715,-0.27517 0.275167,0 0.423334,0.254 0.169333,0.23284 0.169333,0.635 0,0.78317 -0.423333,1.22767 -0.592667,0.61383 -1.397,1.05833 -0.783167,0.42334 -1.672167,0.42334 -1.121833,0 -1.7145,-0.5715 -0.5715,-0.5715 -0.5715,-1.54517 0,-0.3175 0.0635,-0.635 0.04233,-0.42333 0.04233,-0.5715 0,-0.33867 -0.232833,-0.33867 -0.3175,0 -0.846667,0.71967 -0.508,0.6985 -1.015999,1.86267 -0.508,1.16416 -0.8255,2.45533 -0.232834,0.99483 -0.550334,1.35467 -0.296333,0.33866 -0.9525,0.33866 z"
           style="font-style:normal;font-variant:normal;font-weight:normal;font-stretch:normal;font-size:21.16666603px;font-family:Pacifico;-inkscape-font-specification:Pacifico;fill:#ce7726;fill-opacity:1;stroke-width:0.26458332"
           id="path895"
           inkscape:connector-curvature="0" />
        <path
           d="m 49.011847,166.82391 q -1.312333,0 -2.0955,-0.9525 -0.783166,-0.9525 -0.783166,-2.49766 0,-1.69334 0.783166,-3.19617 0.783167,-1.524 2.074334,-2.43417 1.312333,-0.93133 2.772833,-0.93133 0.465666,0 0.613833,0.1905 0.169333,0.16933 0.275167,0.635 0.4445,-0.0847 0.931333,-0.0847 1.037167,0 1.037167,0.74084 0,0.4445 -0.3175,2.11666 -0.486834,2.43417 -0.486834,3.38667 0,0.3175 0.148167,0.508 0.169333,0.1905 0.423333,0.1905 0.402167,0 0.973667,-0.508 0.5715,-0.52917 1.545167,-1.69333 0.254,-0.29634 0.5715,-0.29634 0.275166,0 0.423333,0.254 0.169333,0.254 0.169333,0.6985 0,0.84667 -0.402166,1.31234 -0.867834,1.0795 -1.8415,1.82033 -0.973667,0.74083 -1.883834,0.74083 -0.6985,0 -1.291166,-0.46566 -0.5715,-0.48684 -0.867834,-1.31234 -1.100666,1.778 -2.772833,1.778 z m 0.762,-2.13783 q 0.465667,0 0.889,-0.55033 0.423333,-0.55034 0.613833,-1.4605 l 0.783167,-3.89467 q -0.889,0.0212 -1.651,0.67733 -0.740833,0.635 -1.185333,1.69334 -0.4445,1.05833 -0.4445,2.24366 0,0.65617 0.254,0.97367 0.275167,0.3175 0.740833,0.3175 z"
           style="font-style:normal;font-variant:normal;font-weight:normal;font-stretch:normal;font-size:21.16666603px;font-family:Pacifico;-inkscape-font-specification:Pacifico;fill:#ce7726;fill-opacity:1;stroke-width:0.26458332"
           id="path897"
           inkscape:connector-curvature="0" />
        <path
           d="m 57.874395,166.82391 q -0.804333,0 -1.142999,-0.84666 -0.3175,-0.84667 -0.3175,-2.70934 0,-2.75166 0.783166,-5.22816 0.1905,-0.61384 0.613833,-0.889 0.4445,-0.29634 1.227667,-0.29634 0.423333,0 0.592667,0.10584 0.169333,0.10583 0.169333,0.40216 0,0.33867 -0.3175,1.524 -0.211667,0.84667 -0.338667,1.48167 -0.127,0.635 -0.211666,1.56633 0.6985,-1.82033 1.566333,-2.96333 0.867833,-1.143 1.693333,-1.62983 0.846667,-0.48684 1.545167,-0.48684 1.375833,0 1.375833,1.37584 0,0.8255 -0.465666,2.9845 -0.402167,1.8415 -0.402167,2.43416 0,0.84667 0.613833,0.84667 0.423334,0 0.994834,-0.508 0.592666,-0.52917 1.566333,-1.69333 0.254,-0.29634 0.5715,-0.29634 0.275166,0 0.423333,0.254 0.169333,0.254 0.169333,0.6985 0,0.84667 -0.402166,1.31234 -0.910167,1.12183 -1.9685,1.8415 -1.037167,0.71966 -2.370667,0.71966 -1.0795,0 -1.629833,-0.61383 -0.550333,-0.635 -0.550333,-1.82033 0,-0.59267 0.296333,-2.11667 0.275167,-1.3335 0.275167,-1.8415 0,-0.33867 -0.232834,-0.33867 -0.275166,0 -0.783166,0.71967 -0.486834,0.6985 -1.016,1.86267 -0.508,1.16416 -0.8255,2.45533 -0.232834,0.99483 -0.550334,1.35467 -0.296333,0.33866 -0.9525,0.33866 z"
           style="font-style:normal;font-variant:normal;font-weight:normal;font-stretch:normal;font-size:21.16666603px;font-family:Pacifico;-inkscape-font-specification:Pacifico;fill:#ce7726;fill-opacity:1;stroke-width:0.26458332"
           id="path899"
           inkscape:connector-curvature="0" />
        <path
           d="m 77.709548,162.04025 q 0.275166,0 0.423333,0.27516 0.169333,0.254 0.169333,0.65617 0,0.48683 -0.148167,0.762 -0.148166,0.27517 -0.465666,0.48683 -1.820333,1.22767 -2.667,1.82034 l -1.354667,0.91016 q -0.804333,4.3815 -2.116666,6.87917 -1.291167,2.51883 -3.302,2.51883 -1.0795,0 -1.756833,-0.67733 -0.677334,-0.65617 -0.677334,-1.73567 0,-1.50283 1.185333,-3.2385 1.185334,-1.7145 4.445,-4.23333 l 0.127,-0.8255 q -0.359833,0.5715 -0.9525,0.889 -0.5715,0.29633 -1.143,0.29633 -1.312333,0 -2.0955,-0.9525 -0.783166,-0.9525 -0.783166,-2.49766 0,-1.69334 0.783166,-3.19617 0.783167,-1.524 2.074334,-2.43417 1.312333,-0.93133 2.772833,-0.93133 0.465667,0 0.613833,0.1905 0.169334,0.16933 0.275167,0.635 0.402167,-0.0847 0.931333,-0.0847 0.529167,0 0.740834,0.16934 0.232833,0.14816 0.232833,0.61383 0,0.254 -0.02117,0.40217 -0.08467,0.65616 -0.529166,3.32316 -0.08467,0.508 -0.1905,1.12184 -0.08467,0.59266 -0.1905,1.27 1.629833,-1.27 3.132666,-2.24367 0.275167,-0.16933 0.486834,-0.16933 z m -7.471834,2.64583 q 0.486834,0 0.931334,-0.59267 0.4445,-0.59266 0.635,-1.69333 l 0.677333,-3.6195 q -0.867833,0.0212 -1.608667,0.67733 -0.740833,0.635 -1.185333,1.69334 -0.4445,1.05833 -0.4445,2.24366 0,0.65617 0.254,0.97367 0.275167,0.3175 0.740833,0.3175 z m -1.756833,9.60967 q 0.529167,0 1.185333,-1.27 0.677334,-1.27 1.291167,-4.04284 -1.629833,1.397 -2.3495,2.51884 -0.719667,1.12183 -0.719667,1.9685 0,0.35983 0.127,0.59266 0.148167,0.23284 0.465667,0.23284 z"
           style="font-style:normal;font-variant:normal;font-weight:normal;font-stretch:normal;font-size:21.16666603px;font-family:Pacifico;-inkscape-font-specification:Pacifico;fill:#ce7726;fill-opacity:1;stroke-width:0.26458332"
           id="path901"
           inkscape:connector-curvature="0" />
        <path
           d="m 84.578459,162.63291 q 0.275167,0 0.423333,0.254 0.169334,0.254 0.169334,0.6985 0,0.762 -0.359834,1.31234 -0.592666,0.91016 -1.566333,1.41816 -0.9525,0.508 -2.286,0.508 -2.032,0 -3.153833,-1.2065 -1.121833,-1.22766 -1.121833,-3.302 0,-1.4605 0.613833,-2.70933 0.613833,-1.27 1.693333,-2.01083 1.100667,-0.74084 2.4765,-0.74084 1.227667,0 1.9685,0.74084 0.740833,0.71966 0.740833,1.9685 0,1.4605 -1.058333,2.51883 -1.037166,1.03717 -3.556,1.651 0.508,0.97367 1.7145,0.97367 0.867834,0 1.418167,-0.40217 0.5715,-0.40217 1.312333,-1.35467 0.254,-0.3175 0.5715,-0.3175 z m -3.471333,-3.70416 q -0.783167,0 -1.3335,0.91016 -0.529167,0.91017 -0.529167,2.20134 v 0.0423 q 1.248834,-0.29633 1.9685,-0.889 0.719667,-0.59267 0.719667,-1.37583 0,-0.40217 -0.232833,-0.635 -0.211667,-0.254 -0.592667,-0.254 z"
           style="font-style:normal;font-variant:normal;font-weight:normal;font-stretch:normal;font-size:21.16666603px;font-family:Pacifico;-inkscape-font-specification:Pacifico;fill:#ce7726;fill-opacity:1;stroke-width:0.26458332"
           id="path903"
           inkscape:connector-curvature="0" />
      </g>
      <g
         aria-label="SOMETHING"
         style="font-style:normal;font-variant:normal;font-weight:800;font-stretch:normal;font-size:10.58333302px;line-height:1.25;font-family:Raleway;-inkscape-font-specification:'Raleway Ultra-Bold';letter-spacing:0px;word-spacing:0px;fill:#000000;fill-opacity:1;stroke:none;stroke-width:0.5219202"
         id="text956">
        <path
           d="m 19.332594,139.5176 q -0.03175,-0.0423 -0.22225,-0.15875 -0.1905,-0.11642 -0.47625,-0.24342 -0.28575,-0.127 -0.624417,-0.22225 -0.338666,-0.0952 -0.677333,-0.0952 -0.931333,0 -0.931333,0.62442 0,0.1905 0.09525,0.3175 0.105833,0.127 0.296333,0.23283 0.201083,0.0952 0.497417,0.17992 0.296333,0.0847 0.687916,0.1905 0.53975,0.14816 0.973667,0.32808 0.433917,0.16933 0.73025,0.43392 0.306916,0.254 0.465666,0.62441 0.169334,0.37042 0.169334,0.889 0,0.635 -0.243417,1.0795 -0.232833,0.43392 -0.624416,0.70909 -0.391584,0.26458 -0.899584,0.39158 -0.508,0.11642 -1.04775,0.11642 -0.41275,0 -0.846666,-0.0635 -0.433917,-0.0635 -0.846667,-0.17992 -0.41275,-0.127 -0.804333,-0.29633 -0.381,-0.16934 -0.709084,-0.39159 l 0.762,-1.51341 q 0.04233,0.0529 0.275167,0.20108 0.232833,0.14817 0.5715,0.29633 0.34925,0.14817 0.772583,0.26459 0.423334,0.11641 0.85725,0.11641 0.92075,0 0.92075,-0.56091 0,-0.21167 -0.137583,-0.34925 -0.137583,-0.13759 -0.381,-0.24342 -0.243417,-0.11642 -0.582083,-0.21167 -0.328084,-0.0952 -0.719667,-0.21166 -0.518583,-0.15875 -0.899583,-0.33867 -0.381,-0.1905 -0.635,-0.43392 -0.243417,-0.24341 -0.370417,-0.56091 -0.116417,-0.3175 -0.116417,-0.74084 0,-0.59266 0.22225,-1.04775 0.22225,-0.45508 0.60325,-0.762 0.381,-0.3175 0.878417,-0.47625 0.508,-0.15875 1.068917,-0.15875 0.391583,0 0.772583,0.0741 0.381,0.0741 0.73025,0.1905 0.34925,0.11641 0.645583,0.26458 0.306917,0.14817 0.560917,0.29633 z"
           style="font-style:normal;font-variant:normal;font-weight:800;font-stretch:normal;font-size:10.58333302px;font-family:Raleway;-inkscape-font-specification:'Raleway Ultra-Bold';stroke-width:0.5219202"
           id="path906"
           inkscape:connector-curvature="0" />
        <path
           d="m 24.626741,144.89393 q -0.836083,0 -1.524,-0.32808 -0.687917,-0.32809 -1.17475,-0.85725 -0.486833,-0.53975 -0.762,-1.22767 -0.264583,-0.68792 -0.264583,-1.41817 0,-0.74083 0.275166,-1.42875 0.28575,-0.68791 0.783167,-1.2065 0.508,-0.52916 1.195917,-0.83608 0.687916,-0.3175 1.502833,-0.3175 0.836083,0 1.524,0.32808 0.687917,0.32809 1.17475,0.86784 0.486833,0.53975 0.751417,1.22766 0.264583,0.68792 0.264583,1.397 0,0.74084 -0.28575,1.42875 -0.275167,0.68792 -0.772583,1.21709 -0.497417,0.51858 -1.185334,0.83608 -0.687916,0.3175 -1.502833,0.3175 z m -1.957917,-3.81 q 0,0.43392 0.127,0.84667 0.127,0.40216 0.370417,0.71966 0.254,0.3175 0.624417,0.508 0.370416,0.1905 0.846666,0.1905 0.497417,0 0.867834,-0.20108 0.370416,-0.20108 0.613833,-0.51858 0.243417,-0.32809 0.359833,-0.73025 0.127,-0.41275 0.127,-0.83609 0,-0.43391 -0.127,-0.83608 -0.127,-0.41275 -0.381,-0.71967 -0.254,-0.3175 -0.624416,-0.49741 -0.359834,-0.1905 -0.836084,-0.1905 -0.497416,0 -0.867833,0.20108 -0.359833,0.1905 -0.613833,0.508 -0.243417,0.3175 -0.370417,0.73025 -0.116417,0.40217 -0.116417,0.8255 z"
           style="font-style:normal;font-variant:normal;font-weight:800;font-stretch:normal;font-size:10.58333302px;font-family:Raleway;-inkscape-font-specification:'Raleway Ultra-Bold';stroke-width:0.5219202"
           id="path908"
           inkscape:connector-curvature="0" />
        <path
           d="m 35.302843,144.83043 v -4.49792 l -1.629833,3.27025 h -0.931333 l -1.629833,-3.27025 v 4.49792 h -1.735667 v -7.51417 h 1.883833 l 1.947334,3.92642 1.957916,-3.92642 h 1.87325 v 7.51417 z"
           style="font-style:normal;font-variant:normal;font-weight:800;font-stretch:normal;font-size:10.58333302px;font-family:Raleway;-inkscape-font-specification:'Raleway Ultra-Bold';stroke-width:0.5219202"
           id="path910"
           inkscape:connector-curvature="0" />
        <path
           d="m 43.752312,143.30643 v 1.524 h -5.281083 v -7.51417 h 5.185833 v 1.524 h -3.450167 v 1.4605 h 2.963334 v 1.40759 h -2.963334 v 1.59808 z"
           style="font-style:normal;font-variant:normal;font-weight:800;font-stretch:normal;font-size:10.58333302px;font-family:Raleway;-inkscape-font-specification:'Raleway Ultra-Bold';stroke-width:0.5219202"
           id="path912"
           inkscape:connector-curvature="0" />
        <path
           d="m 50.542677,138.84026 h -2.286 v 5.99017 h -1.735666 v -5.99017 h -2.296584 v -1.524 h 6.31825 z"
           style="font-style:normal;font-variant:normal;font-weight:800;font-stretch:normal;font-size:10.58333302px;font-family:Raleway;-inkscape-font-specification:'Raleway Ultra-Bold';stroke-width:0.5219202"
           id="path914"
           inkscape:connector-curvature="0" />
        <path
           d="m 57.856753,137.31626 v 7.51417 h -1.735667 v -3.07975 h -2.995083 v 3.07975 h -1.735667 v -7.51417 h 1.735667 v 2.91042 h 2.995083 v -2.91042 z"
           style="font-style:normal;font-variant:normal;font-weight:800;font-stretch:normal;font-size:10.58333302px;font-family:Raleway;-inkscape-font-specification:'Raleway Ultra-Bold';stroke-width:0.5219202"
           id="path916"
           inkscape:connector-curvature="0" />
        <path
           d="m 59.286496,144.83043 v -7.51417 h 1.735667 v 7.51417 z"
           style="font-style:normal;font-variant:normal;font-weight:800;font-stretch:normal;font-size:10.58333302px;font-family:Raleway;-inkscape-font-specification:'Raleway Ultra-Bold';stroke-width:0.5219202"
           id="path918"
           inkscape:connector-curvature="0" />
        <path
           d="m 64.205429,140.5336 v 4.29683 h -1.735667 v -7.51417 h 1.354667 l 3.503083,4.41325 v -4.41325 h 1.735666 v 7.51417 h -1.396999 z"
           style="font-style:normal;font-variant:normal;font-weight:800;font-stretch:normal;font-size:10.58333302px;font-family:Raleway;-inkscape-font-specification:'Raleway Ultra-Bold';stroke-width:0.5219202"
           id="path920"
           inkscape:connector-curvature="0" />
        <path
           d="m 75.675284,144.0896 q -0.85725,0.79375 -1.979083,0.79375 -0.740834,0 -1.397,-0.27517 -0.656167,-0.28575 -1.153584,-0.79375 -0.486833,-0.508 -0.772583,-1.21708 -0.28575,-0.71967 -0.28575,-1.57692 0,-0.77258 0.28575,-1.4605 0.28575,-0.68792 0.783167,-1.19592 0.508,-0.508 1.195916,-0.80433 0.687917,-0.29633 1.481667,-0.29633 1.04775,0 1.830917,0.4445 0.783166,0.43391 1.17475,1.19591 l -1.291167,0.97367 q -0.254,-0.508 -0.740833,-0.78317 -0.47625,-0.28575 -1.037167,-0.28575 -0.433917,0 -0.79375,0.17992 -0.34925,0.16933 -0.60325,0.48683 -0.254,0.30692 -0.391583,0.71967 -0.137584,0.41275 -0.137584,0.889 0,0.48683 0.148167,0.89958 0.148167,0.41275 0.41275,0.71967 0.264583,0.29633 0.624417,0.46567 0.370416,0.16933 0.814916,0.16933 1.016,0 1.830917,-0.94192 v -0.23283 h -1.4605 v -1.25942 h 2.899833 v 3.92642 h -1.439333 z"
           style="font-style:normal;font-variant:normal;font-weight:800;font-stretch:normal;font-size:10.58333302px;font-family:Raleway;-inkscape-font-specification:'Raleway Ultra-Bold';stroke-width:0.5219202"
           id="path922"
           inkscape:connector-curvature="0" />
      </g>
    </g>
  </g>
</svg>
