<?xml version="1.0"?>

<!-- Created with Inkscape (http://www.inkscape.org/) --> <svg xmlns:dc="http://purl.org/dc/elements/1.1/" xmlns:cc="http://creativecommons.org/ns#" xmlns:rdf="http://www.w3.org/1999/02/22-rdf-syntax-ns#" xmlns:svg="http://www.w3.org/2000/svg" xmlns="http://www.w3.org/2000/svg" xmlns:sodipodi="http://sodipodi.sourceforge.net/DTD/sodipodi-0.dtd" xmlns:inkscape="http://www.inkscape.org/namespaces/inkscape" width="61.548367" height="30.523649" viewBox="0 0 61.548367 30.523649" version="1.1" id="svg1480" inkscape:version="0.92.2 (5c3e80d, 2017-08-06)" sodipodi:docname="StatusBeacon.svg"> <defs id="defs1474"></defs> <sodipodi:namedview id="base" pagecolor="#ffffff" bordercolor="#666666" borderopacity="1.0" inkscape:pageopacity="0.0" inkscape:pageshadow="2" inkscape:zoom="0.35" inkscape:cx="-215.11669" inkscape:cy="-256.60323" inkscape:document-units="mm" inkscape:current-layer="layer1" showgrid="false" fit-margin-top="0" fit-margin-left="0" fit-margin-right="0" fit-margin-bottom="0" inkscape:window-width="1299" inkscape:window-height="713" inkscape:window-x="67" inkscape:window-y="27" inkscape:window-maximized="1"></sodipodi:namedview> <metadata id="metadata1477"> <rdf:rdf> <cc:work rdf:about=""> <dc:format>image/svg+xml</dc:format> <dc:type rdf:resource="http://purl.org/dc/dcmitype/StillImage"></dc:type> <dc:title></dc:title> </cc:work> </rdf:rdf> </metadata> <g inkscape:label="Layer 1" inkscape:groupmode="layer" id="layer1" transform="translate(-44.065101,-50.416746)"> <g id="g2112"> <g transform="translate(248.66844,229.04733)" aria-label="Beacon" style="font-style:normal;font-variant:normal;font-weight:normal;font-stretch:normal;font-size:21.16666603px;line-height:1.25;font-family:Pacifico;-inkscape-font-specification:Pacifico;letter-spacing:0px;word-spacing:0px;display:inline;fill:#84f5a0;fill-opacity:1;stroke:none;stroke-width:0.26458332" id="text1964-9-5"> <path d="m -186.65401,-162.71193 q 0,1.79916 -1.27,3.1115 -1.27,1.29116 -3.70416,1.86266 1.31233,0.35984 1.98966,1.18534 0.67734,0.80433 0.67734,1.86266 0,1.67217 -1.05834,2.89984 -1.03716,1.22766 -3.048,1.905 -2.01083,0.65616 -4.84716,0.65616 -1.05834,0 -1.69334,-0.0635 -0.0212,0.59267 -0.508,0.889 -0.48683,0.29634 -1.24883,0.29634 -0.762,0 -1.05833,-0.33867 -0.27517,-0.33867 -0.23284,-0.99483 0.1905,-2.96334 0.74084,-6.20184 0.55033,-3.25966 1.397,-6.2865 0.14816,-0.52916 0.59266,-0.74083 0.4445,-0.21167 1.16417,-0.21167 1.29117,0 1.29117,0.71967 0,0.29633 -0.127,0.67733 -0.55034,1.651 -1.10067,4.48734 -0.55033,2.81516 -0.78317,5.37633 1.016,0.0847 1.651,0.0847 2.96334,0 4.33917,-0.84667 1.397,-0.86783 1.397,-2.20133 0,-0.93134 -0.80433,-1.56634 -0.78317,-0.635 -2.64584,-0.6985 -0.42333,-0.0212 -0.59266,-0.21166 -0.16934,-0.1905 -0.16934,-0.61384 0,-0.61383 0.254,-0.99483 0.254,-0.381 0.93134,-0.40217 1.50283,-0.0423 2.70933,-0.4445 1.22767,-0.40216 1.92617,-1.12183 0.6985,-0.74083 0.6985,-1.7145 0,-1.22767 -1.2065,-1.92617 -1.2065,-0.71966 -3.70417,-0.71966 -2.26483,0 -4.3815,0.59266 -2.11667,0.5715 -3.59833,1.4605 -0.67734,0.40217 -1.143,0.40217 -0.381,0 -0.59267,-0.254 -0.1905,-0.27517 -0.1905,-0.67733 0,-0.52917 0.21167,-0.91017 0.23283,-0.381 1.0795,-0.86783 1.778,-1.016 4.16983,-1.5875 2.39183,-0.5715 4.8895,-0.5715 3.83117,0 5.715,1.29116 1.88383,1.29117 1.88383,3.40784 z" style="font-style:normal;font-variant:normal;font-weight:normal;font-stretch:normal;font-size:21.16666603px;font-family:Pacifico;-inkscape-font-specification:Pacifico;fill:#84f5a0;fill-opacity:1;stroke-width:0.26458332" id="path2058" inkscape:connector-curvature="0"></path> <path d="m -177.82718,-153.88543 q 0.27517,0 0.42334,0.254 0.16933,0.254 0.16933,0.6985 0,0.84666 -0.40217,1.31233 -0.78316,0.9525 -2.2225,1.75683 -1.41816,0.80434 -3.048,0.80434 -2.2225,0 -3.45016,-1.2065 -1.22767,-1.2065 -1.22767,-3.302 0,-1.4605 0.61383,-2.70934 0.61384,-1.27 1.69334,-2.01083 1.10066,-0.74083 2.4765,-0.74083 1.22766,0 1.9685,0.74083 0.74083,0.71967 0.74083,1.9685 0,1.4605 -1.05833,2.51883 -1.03717,1.03717 -3.53484,1.651 0.52917,0.97367 2.01084,0.97367 0.9525,0 2.159,-0.65617 1.22766,-0.67733 2.11666,-1.75683 0.254,-0.29633 0.5715,-0.29633 z m -5.334,-3.06917 q -0.78316,0 -1.3335,0.91017 -0.52916,0.91016 -0.52916,2.20133 v 0.0423 q 1.24883,-0.29633 1.9685,-0.889 0.71966,-0.59266 0.71966,-1.37583 0,-0.40217 -0.23283,-0.635 -0.21167,-0.254 -0.59267,-0.254 z" style="font-style:normal;font-variant:normal;font-weight:normal;font-stretch:normal;font-size:21.16666603px;font-family:Pacifico;-inkscape-font-specification:Pacifico;fill:#84f5a0;fill-opacity:1;stroke-width:0.26458332" id="path2060" inkscape:connector-curvature="0"></path> <path d="m -176.47846,-149.05943 q -1.31233,0 -2.0955,-0.9525 -0.78317,-0.9525 -0.78317,-2.49767 0,-1.69333 0.78317,-3.19617 0.78317,-1.524 2.07433,-2.43416 1.31234,-0.93134 2.77284,-0.93134 0.46566,0 0.61383,0.1905 0.16933,0.16934 0.27517,0.635 0.4445,-0.0847 0.93133,-0.0847 1.03716,0 1.03716,0.74083 0,0.4445 -0.3175,2.11667 -0.48683,2.43416 -0.48683,3.38666 0,0.3175 0.14817,0.508 0.16933,0.1905 0.42333,0.1905 0.40217,0 0.97367,-0.508 0.5715,-0.52916 1.54516,-1.69333 0.254,-0.29633 0.5715,-0.29633 0.27517,0 0.42334,0.254 0.16933,0.254 0.16933,0.6985 0,0.84666 -0.40217,1.31233 -0.86783,1.0795 -1.8415,1.82033 -0.97366,0.74084 -1.88383,0.74084 -0.6985,0 -1.29116,-0.46567 -0.5715,-0.48683 -0.86784,-1.31233 -1.10066,1.778 -2.77283,1.778 z m 0.762,-2.13784 q 0.46567,0 0.889,-0.55033 0.42333,-0.55033 0.61383,-1.4605 l 0.78317,-3.89467 q -0.889,0.0212 -1.651,0.67734 -0.74083,0.635 -1.18533,1.69333 -0.4445,1.05833 -0.4445,2.24367 0,0.65616 0.254,0.97366 0.27516,0.3175 0.74083,0.3175 z" style="font-style:normal;font-variant:normal;font-weight:normal;font-stretch:normal;font-size:21.16666603px;font-family:Pacifico;-inkscape-font-specification:Pacifico;fill:#84f5a0;fill-opacity:1;stroke-width:0.26458332" id="path2062" inkscape:connector-curvature="0"></path> <path d="m -165.07591,-149.05943 q -2.07434,0 -3.2385,-1.16417 -1.143,-1.18533 -1.143,-3.1115 0,-1.7145 0.67733,-3.00567 0.67733,-1.29116 1.75683,-1.98966 1.0795,-0.6985 2.26484,-0.6985 1.16416,0 1.79916,0.6985 0.65617,0.67733 0.65617,1.75683 0,0.889 -0.40217,1.50283 -0.381,0.61384 -1.016,0.61384 -0.40216,0 -0.65616,-0.1905 -0.23284,-0.1905 -0.23284,-0.52917 0,-0.14817 0.0423,-0.33867 0.0423,-0.1905 0.0635,-0.27516 0.10583,-0.3175 0.10583,-0.59267 0,-0.27517 -0.14817,-0.42333 -0.127,-0.14817 -0.381,-0.14817 -0.48683,0 -0.91016,0.4445 -0.42334,0.42333 -0.67734,1.16417 -0.254,0.74083 -0.254,1.62983 0,2.45533 2.13784,2.45533 0.86783,0 1.86266,-0.5715 1.016,-0.59266 1.98967,-1.75683 0.254,-0.29633 0.5715,-0.29633 0.27517,0 0.42333,0.254 0.16934,0.254 0.16934,0.6985 0,0.80433 -0.40217,1.31233 -0.99483,1.22767 -2.39183,1.905 -1.37584,0.65617 -2.667,0.65617 z" style="font-style:normal;font-variant:normal;font-weight:normal;font-stretch:normal;font-size:21.16666603px;font-family:Pacifico;-inkscape-font-specification:Pacifico;fill:#84f5a0;fill-opacity:1;stroke-width:0.26458332" id="path2064" inkscape:connector-curvature="0"></path> <path d="m -150.55161,-155.66343 q 0.27517,0 0.42333,0.27516 0.14817,0.27517 0.14817,0.6985 0,1.016 -0.61383,1.2065 -1.27,0.4445 -2.794,0.508 -0.40217,1.778 -1.5875,2.8575 -1.18534,1.05834 -2.68817,1.05834 -1.27,0 -2.18017,-0.61384 -0.889,-0.61383 -1.35466,-1.62983 -0.46567,-1.016 -0.46567,-2.20133 0,-1.60867 0.61383,-2.8575 0.61384,-1.27 1.69334,-1.9685 1.0795,-0.71967 2.39183,-0.71967 1.60867,0 2.58233,1.12183 0.99484,1.10067 1.16417,2.7305 0.99483,-0.0635 2.37067,-0.42333 0.16933,-0.0423 0.29633,-0.0423 z m -6.94267,4.36033 q 0.67734,0 1.16417,-0.55033 0.508,-0.55034 0.67733,-1.5875 -0.65616,-0.4445 -1.016,-1.16417 -0.33866,-0.71967 -0.33866,-1.524 0,-0.33867 0.0635,-0.67733 h -0.10584 q -0.84666,0 -1.41816,0.8255 -0.55034,0.80433 -0.55034,2.286 0,1.16416 0.4445,1.778 0.46567,0.61383 1.0795,0.61383 z" style="font-style:normal;font-variant:normal;font-weight:normal;font-stretch:normal;font-size:21.16666603px;font-family:Pacifico;-inkscape-font-specification:Pacifico;fill:#84f5a0;fill-opacity:1;stroke-width:0.26458332" id="path2066" inkscape:connector-curvature="0"></path> <path d="m -150.29397,-149.05943 q -0.80434,0 -1.143,-0.84667 -0.3175,-0.84667 -0.3175,-2.70933 0,-2.75167 0.78316,-5.22817 0.1905,-0.61383 0.61384,-0.889 0.4445,-0.29633 1.22766,-0.29633 0.42334,0 0.59267,0.10583 0.16933,0.10583 0.16933,0.40217 0,0.33866 -0.3175,1.524 -0.21166,0.84666 -0.33866,1.48166 -0.127,0.635 -0.21167,1.56634 0.6985,-1.82034 1.56633,-2.96334 0.86784,-1.143 1.69334,-1.62983 0.84666,-0.48683 1.54516,-0.48683 0.67734,0 1.016,0.35983 0.35984,0.33867 0.35984,1.016 0,0.55033 -0.23284,2.07433 -0.21166,1.29117 -0.33866,2.45534 -0.127,1.143 -0.127,2.56116 0,0.80434 -0.33867,1.16417 -0.3175,0.33867 -1.05833,0.33867 -0.6985,0 -1.016,-0.35984 -0.3175,-0.35983 -0.3175,-1.0795 0,-0.84666 0.29633,-2.794 0.254,-1.69333 0.254,-2.159 0,-0.33866 -0.23283,-0.33866 -0.27517,0 -0.78317,0.71966 -0.48683,0.6985 -1.016,1.86267 -0.508,1.16417 -0.8255,2.45533 -0.23283,0.99484 -0.55033,1.35467 -0.29634,0.33867 -0.9525,0.33867 z" style="font-style:normal;font-variant:normal;font-weight:normal;font-stretch:normal;font-size:21.16666603px;font-family:Pacifico;-inkscape-font-specification:Pacifico;fill:#84f5a0;fill-opacity:1;stroke-width:0.26458332" id="path2068" inkscape:connector-curvature="0"></path> </g> <g transform="translate(248.66844,229.04733)" aria-label="STATUS" style="font-style:normal;font-variant:normal;font-weight:800;font-stretch:normal;font-size:10.58333302px;line-height:1.25;font-family:Raleway;-inkscape-font-specification:'Raleway Ultra-Bold';letter-spacing:0px;word-spacing:0px;display:inline;fill:#000000;fill-opacity:1;stroke:none;stroke-width:0.5219202" id="text956-7-5"> <path d="m -198.67497,-176.36575 q -0.0317,-0.0423 -0.22225,-0.15875 -0.1905,-0.11642 -0.47625,-0.24342 -0.28575,-0.127 -0.62442,-0.22225 -0.33866,-0.0952 -0.67733,-0.0952 -0.93133,0 -0.93133,0.62442 0,0.1905 0.0952,0.3175 0.10583,0.127 0.29633,0.23283 0.20108,0.0953 0.49742,0.17992 0.29633,0.0847 0.68791,0.1905 0.53975,0.14817 0.97367,0.32808 0.43392,0.16934 0.73025,0.43392 0.30692,0.254 0.46567,0.62442 0.16933,0.37041 0.16933,0.889 0,0.635 -0.24342,1.0795 -0.23283,0.43391 -0.62441,0.70908 -0.39159,0.26458 -0.89959,0.39158 -0.508,0.11642 -1.04775,0.11642 -0.41275,0 -0.84666,-0.0635 -0.43392,-0.0635 -0.84667,-0.17992 -0.41275,-0.127 -0.80433,-0.29633 -0.381,-0.16933 -0.70909,-0.39158 l 0.762,-1.51342 q 0.0423,0.0529 0.27517,0.20108 0.23283,0.14817 0.5715,0.29634 0.34925,0.14816 0.77258,0.26458 0.42334,0.11642 0.85725,0.11642 0.92075,0 0.92075,-0.56092 0,-0.21167 -0.13758,-0.34925 -0.13758,-0.13758 -0.381,-0.24342 -0.24342,-0.11641 -0.58208,-0.21166 -0.32809,-0.0952 -0.71967,-0.21167 -0.51858,-0.15875 -0.89958,-0.33867 -0.381,-0.1905 -0.635,-0.43391 -0.24342,-0.24342 -0.37042,-0.56092 -0.11642,-0.3175 -0.11642,-0.74083 0,-0.59267 0.22225,-1.04775 0.22225,-0.45509 0.60325,-0.762 0.381,-0.3175 0.87842,-0.47625 0.508,-0.15875 1.06892,-0.15875 0.39158,0 0.77258,0.0741 0.381,0.0741 0.73025,0.1905 0.34925,0.11642 0.64558,0.26458 0.30692,0.14817 0.56092,0.29634 z" style="font-style:normal;font-variant:normal;font-weight:800;font-stretch:normal;font-size:10.58333302px;font-family:Raleway;-inkscape-font-specification:'Raleway Ultra-Bold';stroke-width:0.5219202" id="path2071" inkscape:connector-curvature="0"></path> <path d="m -191.00867,-177.04308 h -2.286 v 5.99016 h -1.73567 v -5.99016 h -2.29658 v -1.524 h 6.31825 z" style="font-style:normal;font-variant:normal;font-weight:800;font-stretch:normal;font-size:10.58333302px;font-family:Raleway;-inkscape-font-specification:'Raleway Ultra-Bold';stroke-width:0.5219202" id="path2073" inkscape:connector-curvature="0"></path> <path d="m -188.86257,-178.56708 h 1.56634 l 2.74108,7.51416 h -1.778 l -0.58208,-1.68275 h -2.33892 l -0.5715,1.68275 h -1.778 z m 1.66159,4.6355 -0.87842,-2.65642 -0.89958,2.65642 z" style="font-style:normal;font-variant:normal;font-weight:800;font-stretch:normal;font-size:10.58333302px;font-family:Raleway;-inkscape-font-specification:'Raleway Ultra-Bold';stroke-width:0.5219202" id="path2075" inkscape:connector-curvature="0"></path> <path d="m -178.8337,-177.04308 h -2.286 v 5.99016 h -1.73567 v -5.99016 h -2.29658 v -1.524 h 6.31825 z" style="font-style:normal;font-variant:normal;font-weight:800;font-stretch:normal;font-size:10.58333302px;font-family:Raleway;-inkscape-font-specification:'Raleway Ultra-Bold';stroke-width:0.5219202" id="path2077" inkscape:connector-curvature="0"></path> <path d="m -174.75813,-172.53458 q 0.4445,0 0.75142,-0.17992 0.30692,-0.1905 0.49742,-0.49742 0.1905,-0.30691 0.26458,-0.6985 0.0847,-0.40216 0.0847,-0.81491 v -3.84175 h 1.73566 v 3.84175 q 0,0.78316 -0.20108,1.4605 -0.1905,0.67733 -0.60325,1.18533 -0.40217,0.508 -1.03717,0.80433 -0.62441,0.28575 -1.49225,0.28575 -0.89958,0 -1.53458,-0.30691 -0.635,-0.30692 -1.03717,-0.81492 -0.39158,-0.51858 -0.58208,-1.19592 -0.17992,-0.67733 -0.17992,-1.41816 v -3.84175 h 1.73567 v 3.84175 q 0,0.43391 0.0847,0.8255 0.0847,0.39158 0.27516,0.6985 0.1905,0.30691 0.48684,0.48683 0.30691,0.17992 0.75141,0.17992 z" style="font-style:normal;font-variant:normal;font-weight:800;font-stretch:normal;font-size:10.58333302px;font-family:Raleway;-inkscape-font-specification:'Raleway Ultra-Bold';stroke-width:0.5219202" id="path2079" inkscape:connector-curvature="0"></path> <path d="m -165.58138,-176.36575 q -0.0318,-0.0423 -0.22225,-0.15875 -0.1905,-0.11642 -0.47625,-0.24342 -0.28575,-0.127 -0.62442,-0.22225 -0.33867,-0.0952 -0.67733,-0.0952 -0.93134,0 -0.93134,0.62442 0,0.1905 0.0952,0.3175 0.10584,0.127 0.29634,0.23283 0.20108,0.0953 0.49741,0.17992 0.29634,0.0847 0.68792,0.1905 0.53975,0.14817 0.97367,0.32808 0.43391,0.16934 0.73025,0.43392 0.30691,0.254 0.46566,0.62442 0.16934,0.37041 0.16934,0.889 0,0.635 -0.24342,1.0795 -0.23283,0.43391 -0.62442,0.70908 -0.39158,0.26458 -0.89958,0.39158 -0.508,0.11642 -1.04775,0.11642 -0.41275,0 -0.84667,-0.0635 -0.43391,-0.0635 -0.84666,-0.17992 -0.41275,-0.127 -0.80434,-0.29633 -0.381,-0.16933 -0.70908,-0.39158 l 0.762,-1.51342 q 0.0423,0.0529 0.27517,0.20108 0.23283,0.14817 0.5715,0.29634 0.34925,0.14816 0.77258,0.26458 0.42333,0.11642 0.85725,0.11642 0.92075,0 0.92075,-0.56092 0,-0.21167 -0.13758,-0.34925 -0.13759,-0.13758 -0.381,-0.24342 -0.24342,-0.11641 -0.58209,-0.21166 -0.32808,-0.0952 -0.71966,-0.21167 -0.51859,-0.15875 -0.89959,-0.33867 -0.381,-0.1905 -0.635,-0.43391 -0.24341,-0.24342 -0.37041,-0.56092 -0.11642,-0.3175 -0.11642,-0.74083 0,-0.59267 0.22225,-1.04775 0.22225,-0.45509 0.60325,-0.762 0.381,-0.3175 0.87842,-0.47625 0.508,-0.15875 1.06891,-0.15875 0.39159,0 0.77259,0.0741 0.381,0.0741 0.73025,0.1905 0.34925,0.11642 0.64558,0.26458 0.30692,0.14817 0.56092,0.29634 z" style="font-style:normal;font-variant:normal;font-weight:800;font-stretch:normal;font-size:10.58333302px;font-family:Raleway;-inkscape-font-specification:'Raleway Ultra-Bold';stroke-width:0.5219202" id="path2081" inkscape:connector-curvature="0"></path> </g> </g> </g>
</svg>
