<?xml version="1.0"?>

<!-- Created with Inkscape (http://www.inkscape.org/) --> <svg xmlns:dc="http://purl.org/dc/elements/1.1/" xmlns:cc="http://creativecommons.org/ns#" xmlns:rdf="http://www.w3.org/1999/02/22-rdf-syntax-ns#" xmlns:svg="http://www.w3.org/2000/svg" xmlns="http://www.w3.org/2000/svg" xmlns:sodipodi="http://sodipodi.sourceforge.net/DTD/sodipodi-0.dtd" xmlns:inkscape="http://www.inkscape.org/namespaces/inkscape" width="300" height="300" viewBox="0 0 79.374999 79.374999" version="1.1" id="svg8" inkscape:version="0.92.2 (5c3e80d, 2017-08-06)" sodipodi:docname="404.svg"> <defs id="defs2"></defs> <sodipodi:namedview id="base" pagecolor="#ffffff" bordercolor="#666666" borderopacity="1.0" inkscape:pageopacity="0.0" inkscape:pageshadow="2" inkscape:zoom="0.7" inkscape:cx="233.53786" inkscape:cy="108.40342" inkscape:document-units="mm" inkscape:current-layer="layer1" showgrid="false" units="px" inkscape:window-width="1299" inkscape:window-height="713" inkscape:window-x="67" inkscape:window-y="27" inkscape:window-maximized="1"></sodipodi:namedview> <metadata id="metadata5"> <rdf:rdf> <cc:work rdf:about=""> <dc:format>image/svg+xml</dc:format> <dc:type rdf:resource="http://purl.org/dc/dcmitype/StillImage"></dc:type> <dc:title></dc:title> </cc:work> </rdf:rdf> </metadata> <g inkscape:label="Layer 1" inkscape:groupmode="layer" id="layer1" transform="translate(0,-217.62501)"> <rect style="opacity:1;fill:#f9f9f9;fill-opacity:1;stroke:none;stroke-width:0.73958522;stroke-opacity:1" id="rect1075" width="79.375" height="79.375" x="0" y="217.62502"></rect> <g id="g950" transform="matrix(0.32443394,0,0,0.32443394,23.417138,224.10897)" style="stroke:none;stroke-opacity:1"> <circle style="fill:none;stroke:none;stroke-opacity:1" cx="31.1" cy="30.200001" r="7.0999999" id="circle938"></circle> <polygon style="fill:none;stroke:none;stroke-opacity:1" points="30.7,46.2 14.3,74.7 49.4,74.7 45.9,61.8 42.9,67.1 " id="polygon940"></polygon> <polygon style="fill:none;stroke:none;stroke-opacity:1" points="47.1,59.7 50.4,74.7 87.5,74.7 63,32.3 " id="polygon942"></polygon> <path inkscape:connector-curvature="0" d="m 30.7,46.2 12.1,21 3.1,-5.3 -3,-11.2 5.5,-9.9 -3.6,-4.7 5.6,-8.5 -3.3,-11.3 H 8.6 v 65 H 51.2 L 49.4,74.8 H 14.3 Z m 0.4,-23.1 c 3.9,0 7.1,3.2 7.1,7.1 0,3.9 -3.2,7.1 -7.1,7.1 -3.9,0 -7.1,-3.1 -7.1,-7.1 0,-3.9 3.2,-7.1 7.1,-7.1 z" id="path944" style="stroke:none;stroke-opacity:1"></path> <polygon points="51.8,81.3 91.7,81.3 91.7,16.3 54.4,16.3 56.8,27.8 50.1,35 54.3,40.1 45.3,51.3 47.1,59.7 63,32.3 87.5,74.7 50.4,74.7 " id="polygon946" style="stroke:none;stroke-opacity:1"></polygon> <polygon points="49.4,74.7 50.4,74.7 47.1,59.7 45.9,61.8 " id="polygon948" style="stroke:none;stroke-opacity:1"></polygon> </g> <g aria-label="404" style="font-style:normal;font-variant:normal;font-weight:normal;font-stretch:normal;font-size:22.02589989px;line-height:1.25;font-family:Vemana2000;-inkscape-font-specification:Vemana2000;letter-spacing:0px;word-spacing:0px;fill:#000000;fill-opacity:1;stroke:none;stroke-width:0.5506475" id="text986" transform="matrix(0.73492314,0,0,0.73492314,10.520238,66.751073)"> <path d="m 29.873713,265.68706 v -7.50688 l -5.861385,7.50688 z m 1.699264,4.50627 h -1.699264 v -2.85003 h -9.281422 l 10.980686,-14.09958 v 12.44334 h 1.871341 l -0.559252,1.65624 h -1.312089 z" style="font-style:normal;font-variant:normal;font-weight:bold;font-stretch:normal;font-family:Sawasdee;-inkscape-font-specification:'Sawasdee Bold';stroke-width:0.5506475" id="path1049" inkscape:connector-curvature="0"></path> <path d="m 40.316657,270.35466 q -1.634735,0 -2.93607,-1.15077 -1.301335,-1.16152 -1.989644,-3.01135 -0.677554,-1.84984 -0.677554,-3.99005 0,-1.59171 0.408683,-3.07588 0.408684,-1.48417 1.118503,-2.61342 0.720574,-1.12926 1.785302,-1.80682 1.064729,-0.68831 2.29078,-0.68831 1.613225,0 2.903805,1.16153 1.301335,1.16152 1.989644,3.0221 0.68831,1.86059 0.68831,4.0008 0,1.59172 -0.408684,3.07588 -0.408684,1.47342 -1.129257,2.60267 -0.709819,1.11851 -1.774548,1.79606 -1.053974,0.67756 -2.26927,0.67756 z m -3.904005,-8.15217 q 0,1.15077 0.225852,2.19399 0.225851,1.03246 0.613025,1.80681 0.387174,0.77435 0.881897,1.35511 0.505477,0.57001 1.064728,0.87114 0.559252,0.29038 1.118503,0.29038 0.537742,0 1.086238,-0.29038 0.559252,-0.29038 1.064729,-0.86039 0.505477,-0.57 0.892651,-1.34435 0.397929,-0.77435 0.62378,-1.81757 0.236607,-1.04322 0.236607,-2.20474 0,-1.43039 -0.35491,-2.67795 -0.354909,-1.25832 -0.924916,-2.07568 -0.559251,-0.82813 -1.24756,-1.30134 -0.68831,-0.47321 -1.376619,-0.47321 -0.688309,0 -1.376619,0.47321 -0.688309,0.46246 -1.258315,1.27983 -0.559252,0.81736 -0.914161,2.07568 -0.35491,1.25831 -0.35491,2.69946 z" style="font-style:normal;font-variant:normal;font-weight:bold;font-stretch:normal;font-family:Sawasdee;-inkscape-font-specification:'Sawasdee Bold';stroke-width:0.5506475" id="path1051" inkscape:connector-curvature="0"></path> <path d="m 55.212103,265.68706 v -7.50688 l -5.861384,7.50688 z m 1.699264,4.50627 h -1.699264 v -2.85003 h -9.281421 l 10.980685,-14.09958 v 12.44334 h 1.871341 l -0.559251,1.65624 h -1.31209 z" style="font-style:normal;font-variant:normal;font-weight:bold;font-stretch:normal;font-family:Sawasdee;-inkscape-font-specification:'Sawasdee Bold';stroke-width:0.5506475" id="path1053" inkscape:connector-curvature="0"></path> </g> <g aria-label="This masterpiece
is missing" style="font-style:normal;font-variant:normal;font-weight:bold;font-stretch:normal;font-size:8.81416988px;line-height:1;font-family:Sawasdee;-inkscape-font-specification:'Sawasdee Bold';text-align:center;letter-spacing:0px;word-spacing:0px;text-anchor:middle;fill:#000000;fill-opacity:1;stroke:none;stroke-width:0.22035424" id="text992" transform="matrix(0.91351654,0,0,0.91351654,3.4323124,19.180816)"> <path d="m 11.258788,274.23197 v 0.38734 H 9.5932201 v 6.03822 H 9.2058786 v -6.03822 h -1.669872 v -0.38734 z" style="font-style:normal;font-variant:normal;font-weight:normal;font-stretch:normal;line-height:1;font-family:Sawasdee;-inkscape-font-specification:Sawasdee;text-align:center;text-anchor:middle;stroke-width:0.22035424" id="path1000" inkscape:connector-curvature="0"></path> <path d="m 12.23575,280.65753 v -6.42556 h 0.387341 v 3.30101 q 0.223797,-0.52507 0.649873,-0.91671 0.426076,-0.39165 0.822025,-0.39165 0.438987,0 0.740252,0.24532 0.30557,0.24532 0.438987,0.62835 0.137722,0.38304 0.137722,0.86507 v 2.69417 h -0.378734 v -2.69417 q 0,-0.23671 -0.04734,-0.45621 -0.04304,-0.21949 -0.142025,-0.43037 -0.09899,-0.21089 -0.296962,-0.3357 -0.193671,-0.12911 -0.460506,-0.12911 -0.253924,0 -0.529367,0.19797 -0.271139,0.19797 -0.473417,0.48633 -0.197974,0.28405 -0.331392,0.60683 -0.129114,0.32279 -0.129114,0.5681 v 2.18633 z" style="font-style:normal;font-variant:normal;font-weight:normal;font-stretch:normal;line-height:1;font-family:Sawasdee;-inkscape-font-specification:Sawasdee;text-align:center;text-anchor:middle;stroke-width:0.22035424" id="path1002" inkscape:connector-curvature="0"></path> <path d="m 16.69448,275.26057 q 0,-0.14202 0.09899,-0.24531 0.103291,-0.10329 0.24962,-0.10329 0.142026,0 0.241013,0.10329 0.103291,0.10329 0.103291,0.24531 0,0.14633 -0.09899,0.24962 -0.09899,0.099 -0.245317,0.099 -0.146329,0 -0.24962,-0.099 -0.09899,-0.10329 -0.09899,-0.24962 z m 0.542278,5.39696 h -0.387341 v -4.36405 h 0.387341 z" style="font-style:normal;font-variant:normal;font-weight:normal;font-stretch:normal;line-height:1;font-family:Sawasdee;-inkscape-font-specification:Sawasdee;text-align:center;text-anchor:middle;stroke-width:0.22035424" id="path1004" inkscape:connector-curvature="0"></path> <path d="m 21.002577,277.06386 -0.357215,0.12481 q -0.09038,-0.28835 -0.305569,-0.43898 -0.21519,-0.15494 -0.460506,-0.15494 -0.28405,0 -0.486329,0.18076 -0.197974,0.18076 -0.197974,0.49063 0,0.16355 0.09038,0.29696 0.09038,0.13342 0.236708,0.2195 0.146329,0.0861 0.331392,0.17645 0.189367,0.0904 0.383038,0.16785 0.193671,0.0775 0.378734,0.19367 0.189367,0.1162 0.335696,0.24962 0.146329,0.13342 0.236708,0.34431 0.09038,0.21088 0.09038,0.47341 0,0.59823 -0.426075,0.97266 -0.426076,0.37013 -0.989873,0.37013 -0.245316,0 -0.469114,-0.0775 -0.223797,-0.0818 -0.413164,-0.23671 -0.189367,-0.15494 -0.322784,-0.41316 -0.133418,-0.25823 -0.172152,-0.58962 l 0.383038,-0.0559 q 0.06025,0.49063 0.339999,0.74025 0.284051,0.24962 0.662785,0.24962 0.400252,0 0.710126,-0.26684 0.309873,-0.27114 0.309873,-0.69291 0,-0.2324 -0.116203,-0.40886 -0.116202,-0.18076 -0.301265,-0.29266 -0.18076,-0.11189 -0.404557,-0.21088 -0.223797,-0.099 -0.447595,-0.20228 -0.223797,-0.10329 -0.40886,-0.2238 -0.180759,-0.12481 -0.296962,-0.32278 -0.116202,-0.20228 -0.116202,-0.46051 0,-0.48202 0.318481,-0.76607 0.322784,-0.28405 0.761771,-0.28405 0.361519,0 0.675696,0.21949 0.314177,0.21519 0.447594,0.62835 z" style="font-style:normal;font-variant:normal;font-weight:normal;font-stretch:normal;line-height:1;font-family:Sawasdee;-inkscape-font-specification:Sawasdee;text-align:center;text-anchor:middle;stroke-width:0.22035424" id="path1006" inkscape:connector-curvature="0"></path> <path d="m 25.555991,276.29348 h 0.413164 q 0.08177,0.28406 0.08177,0.57671 v 0.62836 q 0.206582,-0.50785 0.593924,-0.89089 0.387341,-0.38304 0.731645,-0.38304 0.512151,0 0.822024,0.35722 0.309873,0.35291 0.391645,0.91671 0.21519,-0.52507 0.576709,-0.89089 0.365822,-0.37012 0.718733,-0.37012 0.404557,0 0.684304,0.25392 0.28405,0.24962 0.404556,0.63266 0.12481,0.37873 0.12481,0.84784 v 2.68557 h -0.387341 v -2.68557 q 0,-0.2324 -0.03873,-0.45189 -0.03873,-0.2195 -0.129114,-0.43038 -0.08608,-0.21089 -0.258228,-0.34 -0.172151,-0.12912 -0.40886,-0.12912 -0.288354,0 -0.602531,0.32709 -0.314177,0.32279 -0.512152,0.76177 -0.197974,0.43899 -0.197974,0.77899 v 2.16911 h -0.387342 v -2.69417 q 0,-0.23671 -0.03873,-0.45621 -0.03873,-0.21949 -0.12481,-0.43037 -0.08608,-0.21089 -0.262531,-0.3357 -0.172152,-0.12911 -0.413165,-0.12911 -0.266835,0 -0.576708,0.30987 -0.305569,0.30987 -0.507848,0.74886 -0.202278,0.43899 -0.202278,0.8005 v 2.18633 h -0.387341 v -3.78734 q 0,-0.37012 -0.107595,-0.57671 z" style="font-style:normal;font-variant:normal;font-weight:normal;font-stretch:normal;line-height:1;font-family:Sawasdee;-inkscape-font-specification:Sawasdee;text-align:center;text-anchor:middle;stroke-width:0.22035424" id="path1008" inkscape:connector-curvature="0"></path> <path d="m 35.768895,280.65753 h -0.413164 q -0.07747,-0.24531 -0.07747,-0.57671 v -0.34 q -0.309874,0.43038 -0.744557,0.71013 -0.430379,0.27975 -0.912404,0.27975 -0.348607,0 -0.62405,-0.1076 -0.271139,-0.1119 -0.43038,-0.29266 -0.15924,-0.18076 -0.241012,-0.38303 -0.08177,-0.20659 -0.08177,-0.41747 0,-0.2195 0.06456,-0.40456 0.06886,-0.18506 0.172152,-0.31418 0.107594,-0.13341 0.279746,-0.2367 0.176456,-0.1076 0.335696,-0.17216 0.163544,-0.0689 0.404557,-0.1162 0.241012,-0.0516 0.417468,-0.0732 0.176455,-0.0258 0.438987,-0.0387 0.262531,-0.0129 0.413164,-0.0129 0.154936,-0.004 0.391645,-0.004 h 0.116203 q -0.02152,-0.71013 -0.421772,-1.1319 -0.395949,-0.42177 -0.916708,-0.42177 -0.30557,0 -0.598228,0.15924 -0.288354,0.15924 -0.503544,0.46481 l -0.305569,-0.20228 q 0.262532,-0.40456 0.632658,-0.60684 0.370126,-0.20227 0.774683,-0.20227 0.327088,0 0.628354,0.13341 0.305569,0.12912 0.546581,0.37013 0.241013,0.23671 0.387342,0.61114 0.150633,0.37443 0.15924,0.82633 v 1.92379 q 0,0.37443 0.107595,0.57671 z m -2.147593,-0.30987 q 0.494936,0 0.959746,-0.33139 0.46481,-0.3314 0.697215,-0.75747 v -0.82633 q -0.202279,0.004 -0.34,0.009 -0.133418,0.004 -0.370126,0.0215 -0.232405,0.0129 -0.395949,0.0344 -0.163545,0.0172 -0.383038,0.0602 -0.21519,0.043 -0.365823,0.099 -0.150632,0.0516 -0.314177,0.13772 -0.15924,0.0818 -0.258227,0.18506 -0.09899,0.099 -0.163544,0.24101 -0.06025,0.14203 -0.06025,0.30988 0,0.30987 0.258227,0.56379 0.258228,0.25393 0.735949,0.25393 z" style="font-style:normal;font-variant:normal;font-weight:normal;font-stretch:normal;line-height:1;font-family:Sawasdee;-inkscape-font-specification:Sawasdee;text-align:center;text-anchor:middle;stroke-width:0.22035424" id="path1010" inkscape:connector-curvature="0"></path> <path d="m 39.422816,277.06386 -0.357215,0.12481 q -0.09038,-0.28835 -0.305569,-0.43898 -0.21519,-0.15494 -0.460506,-0.15494 -0.284051,0 -0.486329,0.18076 -0.197975,0.18076 -0.197975,0.49063 0,0.16355 0.09038,0.29696 0.09038,0.13342 0.236709,0.2195 0.146329,0.0861 0.331392,0.17645 0.189367,0.0904 0.383038,0.16785 0.19367,0.0775 0.378733,0.19367 0.189367,0.1162 0.335696,0.24962 0.146329,0.13342 0.236709,0.34431 0.09038,0.21088 0.09038,0.47341 0,0.59823 -0.426076,0.97266 -0.426076,0.37013 -0.989873,0.37013 -0.245316,0 -0.469113,-0.0775 -0.223797,-0.0818 -0.413164,-0.23671 -0.189367,-0.15494 -0.322785,-0.41316 -0.133417,-0.25823 -0.172152,-0.58962 l 0.383038,-0.0559 q 0.06025,0.49063 0.34,0.74025 0.28405,0.24962 0.662784,0.24962 0.400253,0 0.710126,-0.26684 0.309873,-0.27114 0.309873,-0.69291 0,-0.2324 -0.116202,-0.40886 -0.116203,-0.18076 -0.301266,-0.29266 -0.180759,-0.11189 -0.404556,-0.21088 -0.223798,-0.099 -0.447595,-0.20228 -0.223797,-0.10329 -0.40886,-0.2238 -0.18076,-0.12481 -0.296962,-0.32278 -0.116203,-0.20228 -0.116203,-0.46051 0,-0.48202 0.318481,-0.76607 0.322785,-0.28405 0.761772,-0.28405 0.361518,0 0.675695,0.21949 0.314177,0.21519 0.447595,0.62835 z" style="font-style:normal;font-variant:normal;font-weight:normal;font-stretch:normal;line-height:1;font-family:Sawasdee;-inkscape-font-specification:Sawasdee;text-align:center;text-anchor:middle;stroke-width:0.22035424" id="path1012" inkscape:connector-curvature="0"></path> <path d="m 41.32079,280.65753 h -0.387341 v -3.98101 h -0.383038 v -0.38304 h 0.383038 v -1.03291 h 0.387341 v 1.03291 h 1.205063 l -0.129114,0.38304 H 41.32079 Z" style="font-style:normal;font-variant:normal;font-weight:normal;font-stretch:normal;line-height:1;font-family:Sawasdee;-inkscape-font-specification:Sawasdee;text-align:center;text-anchor:middle;stroke-width:0.22035424" id="path1014" inkscape:connector-curvature="0"></path> <path d="m 43.541548,278.10538 h 3.171896 q -0.120506,-0.64987 -0.568101,-1.07164 -0.447594,-0.42177 -1.024303,-0.42177 -0.572404,0 -1.019999,0.42177 -0.443291,0.42177 -0.559493,1.07164 z m 3.593668,0.36582 h -3.653921 q 0,0.77038 0.482025,1.30836 0.482025,0.53797 1.140505,0.53797 0.434683,0 0.852151,-0.2324 0.417468,-0.23241 0.636962,-0.62405 l 0.34,0.19367 q -0.262532,0.46911 -0.774683,0.77038 -0.512152,0.29696 -1.05443,0.29696 -0.546582,0 -1.007088,-0.30557 -0.456202,-0.30557 -0.718733,-0.82203 -0.258228,-0.52075 -0.258228,-1.12329 0,-0.59822 0.262532,-1.11468 0.266835,-0.51645 0.727341,-0.82202 0.464809,-0.30988 1.011391,-0.30988 0.516456,0 0.959746,0.27975 0.447595,0.27544 0.723038,0.74456 0.275442,0.46911 0.322784,1.0286 z" style="font-style:normal;font-variant:normal;font-weight:normal;font-stretch:normal;line-height:1;font-family:Sawasdee;-inkscape-font-specification:Sawasdee;text-align:center;text-anchor:middle;stroke-width:0.22035424" id="path1016" inkscape:connector-curvature="0"></path> <path d="m 48.262808,276.29348 h 0.413165 q 0.08177,0.28406 0.08177,0.57671 v 0.54228 q 0.09899,-0.33139 0.460506,-0.68861 0.361518,-0.35721 0.727341,-0.49924 l 0.430379,0.30557 q -0.378734,0 -0.757467,0.26684 -0.374431,0.26683 -0.619747,0.71012 -0.241012,0.43899 -0.241012,0.90811 v 2.24227 h -0.387342 v -3.78734 q 0,-0.37012 -0.107595,-0.57671 z" style="font-style:normal;font-variant:normal;font-weight:normal;font-stretch:normal;line-height:1;font-family:Sawasdee;-inkscape-font-specification:Sawasdee;text-align:center;text-anchor:middle;stroke-width:0.22035424" id="path1018" inkscape:connector-curvature="0"></path> <path d="m 51.051669,276.29348 h 0.413164 q 0.08177,0.28406 0.08177,0.57671 v 0.54228 q 0.163544,-0.4519 0.645569,-0.81772 0.482025,-0.37013 0.972658,-0.37013 0.546581,0 1.002784,0.30988 0.456202,0.30557 0.714429,0.82202 0.262532,0.51646 0.262532,1.11468 0,0.60254 -0.262532,1.12329 -0.258227,0.51646 -0.714429,0.82203 -0.456203,0.30557 -1.002784,0.30557 -0.499241,0 -0.981265,-0.35291 -0.477722,-0.35722 -0.636962,-0.83063 v 3.27518 h -0.387341 v -5.94354 q 0,-0.37012 -0.107595,-0.57671 z m 0.972657,0.86076 q -0.477721,0.54228 -0.477721,1.31696 0,0.77469 0.477721,1.32127 0.477721,0.54658 1.140506,0.54658 0.654176,0 1.136201,-0.54658 0.482025,-0.55089 0.482025,-1.32127 0,-0.77468 -0.482025,-1.31696 -0.482025,-0.54227 -1.136201,-0.54227 -0.662785,0 -1.140506,0.54227 z" style="font-style:normal;font-variant:normal;font-weight:normal;font-stretch:normal;line-height:1;font-family:Sawasdee;-inkscape-font-specification:Sawasdee;text-align:center;text-anchor:middle;stroke-width:0.22035424" id="path1020" inkscape:connector-curvature="0"></path> <path d="m 56.237737,275.26057 q 0,-0.14202 0.09899,-0.24531 0.103291,-0.10329 0.24962,-0.10329 0.142025,0 0.241013,0.10329 0.103291,0.10329 0.103291,0.24531 0,0.14633 -0.09899,0.24962 -0.09899,0.099 -0.245316,0.099 -0.146329,0 -0.24962,-0.099 -0.09899,-0.10329 -0.09899,-0.24962 z m 0.542278,5.39696 h -0.387342 v -4.36405 h 0.387342 z" style="font-style:normal;font-variant:normal;font-weight:normal;font-stretch:normal;line-height:1;font-family:Sawasdee;-inkscape-font-specification:Sawasdee;text-align:center;text-anchor:middle;stroke-width:0.22035424" id="path1022" inkscape:connector-curvature="0"></path> <path d="m 58.449888,278.10538 h 3.171896 q -0.120506,-0.64987 -0.5681,-1.07164 -0.447595,-0.42177 -1.024303,-0.42177 -0.572405,0 -1.019999,0.42177 -0.443291,0.42177 -0.559494,1.07164 z m 3.593668,0.36582 h -3.653921 q 0,0.77038 0.482025,1.30836 0.482025,0.53797 1.140506,0.53797 0.434683,0 0.852151,-0.2324 0.417468,-0.23241 0.636961,-0.62405 l 0.34,0.19367 q -0.262531,0.46911 -0.774683,0.77038 -0.512151,0.29696 -1.054429,0.29696 -0.546582,0 -1.007088,-0.30557 -0.456202,-0.30557 -0.718734,-0.82203 -0.258227,-0.52075 -0.258227,-1.12329 0,-0.59822 0.262531,-1.11468 0.266835,-0.51645 0.727341,-0.82202 0.46481,-0.30988 1.011392,-0.30988 0.516455,0 0.959746,0.27975 0.447594,0.27544 0.723037,0.74456 0.275443,0.46911 0.322785,1.0286 z" style="font-style:normal;font-variant:normal;font-weight:normal;font-stretch:normal;line-height:1;font-family:Sawasdee;-inkscape-font-specification:Sawasdee;text-align:center;text-anchor:middle;stroke-width:0.22035424" id="path1024" inkscape:connector-curvature="0"></path> <path d="m 66.437728,279.45247 0.327089,0.19367 q -0.266835,0.48203 -0.718734,0.77038 -0.447594,0.28835 -0.972657,0.28835 -0.546582,0 -1.007088,-0.30126 -0.456202,-0.30557 -0.718734,-0.82203 -0.258227,-0.51645 -0.258227,-1.11898 0,-0.60684 0.258227,-1.12329 0.262532,-0.51646 0.718734,-0.81772 0.460506,-0.30557 1.007088,-0.30557 0.525063,0 0.972657,0.28835 0.451899,0.28835 0.718734,0.77038 l -0.327089,0.19367 q -0.228101,-0.39595 -0.589619,-0.62405 -0.357215,-0.2324 -0.774683,-0.2324 -0.658481,0 -1.140506,0.53367 -0.482025,0.53367 -0.482025,1.30405 0,0.77468 0.482025,1.31696 0.482025,0.54227 1.140506,0.54227 0.417468,0 0.778986,-0.2281 0.361519,-0.2281 0.585316,-0.62835 z" style="font-style:normal;font-variant:normal;font-weight:normal;font-stretch:normal;line-height:1;font-family:Sawasdee;-inkscape-font-specification:Sawasdee;text-align:center;text-anchor:middle;stroke-width:0.22035424" id="path1026" inkscape:connector-curvature="0"></path> <path d="m 68.245325,278.10538 h 3.171896 q -0.120506,-0.64987 -0.5681,-1.07164 -0.447595,-0.42177 -1.024303,-0.42177 -0.572405,0 -1.02,0.42177 -0.44329,0.42177 -0.559493,1.07164 z m 3.593668,0.36582 h -3.653921 q 0,0.77038 0.482025,1.30836 0.482025,0.53797 1.140505,0.53797 0.434684,0 0.852152,-0.2324 0.417468,-0.23241 0.636961,-0.62405 l 0.34,0.19367 q -0.262532,0.46911 -0.774683,0.77038 -0.512152,0.29696 -1.05443,0.29696 -0.546581,0 -1.007087,-0.30557 -0.456203,-0.30557 -0.718734,-0.82203 -0.258228,-0.52075 -0.258228,-1.12329 0,-0.59822 0.262532,-1.11468 0.266835,-0.51645 0.727341,-0.82202 0.46481,-0.30988 1.011392,-0.30988 0.516455,0 0.959746,0.27975 0.447594,0.27544 0.723037,0.74456 0.275443,0.46911 0.322785,1.0286 z" style="font-style:normal;font-variant:normal;font-weight:normal;font-stretch:normal;line-height:1;font-family:Sawasdee;-inkscape-font-specification:Sawasdee;text-align:center;text-anchor:middle;stroke-width:0.22035424" id="path1028" inkscape:connector-curvature="0"></path> <path d="m 21.953716,284.07474 q 0,-0.14202 0.09899,-0.24531 0.103291,-0.10329 0.24962,-0.10329 0.142026,0 0.241013,0.10329 0.103291,0.10329 0.103291,0.24531 0,0.14633 -0.09899,0.24962 -0.09899,0.099 -0.245317,0.099 -0.146329,0 -0.24962,-0.099 -0.09899,-0.10329 -0.09899,-0.24962 z m 0.542278,5.39696 h -0.387341 v -4.36405 h 0.387341 z" style="font-style:normal;font-variant:normal;font-weight:normal;font-stretch:normal;line-height:1;font-family:Sawasdee;-inkscape-font-specification:Sawasdee;text-align:center;text-anchor:middle;stroke-width:0.22035424" id="path1030" inkscape:connector-curvature="0"></path> <path d="m 26.261814,285.87803 -0.357215,0.12481 q -0.09038,-0.28835 -0.305569,-0.43898 -0.21519,-0.15494 -0.460506,-0.15494 -0.284051,0 -0.486329,0.18076 -0.197975,0.18076 -0.197975,0.49063 0,0.16355 0.09038,0.29696 0.09038,0.13342 0.236709,0.2195 0.146329,0.0861 0.331392,0.17645 0.189367,0.0904 0.383037,0.16785 0.193671,0.0775 0.378734,0.19367 0.189367,0.1162 0.335696,0.24962 0.146329,0.13342 0.236709,0.34431 0.09038,0.21088 0.09038,0.47341 0,0.59823 -0.426076,0.97266 -0.426076,0.37013 -0.989873,0.37013 -0.245316,0 -0.469113,-0.0775 -0.223797,-0.0818 -0.413164,-0.23671 -0.189367,-0.15494 -0.322785,-0.41317 -0.133417,-0.25822 -0.172152,-0.58961 l 0.383038,-0.0559 q 0.06025,0.49063 0.34,0.74025 0.28405,0.24962 0.662784,0.24962 0.400253,0 0.710126,-0.26684 0.309873,-0.27114 0.309873,-0.69291 0,-0.2324 -0.116202,-0.40886 -0.116203,-0.18076 -0.301266,-0.29266 -0.180759,-0.11189 -0.404556,-0.21088 -0.223798,-0.099 -0.447595,-0.20228 -0.223797,-0.10329 -0.40886,-0.2238 -0.18076,-0.12481 -0.296962,-0.32278 -0.116203,-0.20228 -0.116203,-0.46051 0,-0.48202 0.318481,-0.76607 0.322785,-0.28405 0.761772,-0.28405 0.361518,0 0.675695,0.21949 0.314177,0.21519 0.447595,0.62835 z" style="font-style:normal;font-variant:normal;font-weight:normal;font-stretch:normal;line-height:1;font-family:Sawasdee;-inkscape-font-specification:Sawasdee;text-align:center;text-anchor:middle;stroke-width:0.22035424" id="path1032" inkscape:connector-curvature="0"></path> <path d="m 30.815228,285.10765 h 0.413164 q 0.08177,0.28406 0.08177,0.57671 v 0.62836 q 0.206582,-0.50785 0.593924,-0.89089 0.387341,-0.38304 0.731645,-0.38304 0.512151,0 0.822024,0.35722 0.309873,0.35291 0.391645,0.91671 0.21519,-0.52507 0.576709,-0.89089 0.365822,-0.37012 0.718733,-0.37012 0.404557,0 0.684304,0.25392 0.28405,0.24962 0.404556,0.63266 0.12481,0.37873 0.12481,0.84784 v 2.68557 h -0.387341 v -2.68557 q 0,-0.2324 -0.03873,-0.45189 -0.03873,-0.2195 -0.129114,-0.43038 -0.08608,-0.21089 -0.258228,-0.34 -0.172152,-0.12912 -0.40886,-0.12912 -0.288354,0 -0.602531,0.32709 -0.314177,0.32279 -0.512152,0.76177 -0.197974,0.43899 -0.197974,0.77899 v 2.16911 H 33.43624 v -2.69417 q 0,-0.23671 -0.03873,-0.45621 -0.03873,-0.21949 -0.12481,-0.43037 -0.08608,-0.21089 -0.262531,-0.3357 -0.172152,-0.12911 -0.413165,-0.12911 -0.266835,0 -0.576708,0.30987 -0.305569,0.30987 -0.507848,0.74886 -0.202278,0.43899 -0.202278,0.8005 v 2.18633 h -0.387341 v -3.78734 q 0,-0.37012 -0.107595,-0.57671 z" style="font-style:normal;font-variant:normal;font-weight:normal;font-stretch:normal;line-height:1;font-family:Sawasdee;-inkscape-font-specification:Sawasdee;text-align:center;text-anchor:middle;stroke-width:0.22035424" id="path1034" inkscape:connector-curvature="0"></path> <path d="m 37.636741,284.07474 q 0,-0.14202 0.09899,-0.24531 0.103291,-0.10329 0.24962,-0.10329 0.142025,0 0.241012,0.10329 0.103291,0.10329 0.103291,0.24531 0,0.14633 -0.09899,0.24962 -0.09899,0.099 -0.245316,0.099 -0.146329,0 -0.24962,-0.099 -0.09899,-0.10329 -0.09899,-0.24962 z m 0.542279,5.39696 h -0.387342 v -4.36405 h 0.387342 z" style="font-style:normal;font-variant:normal;font-weight:normal;font-stretch:normal;line-height:1;font-family:Sawasdee;-inkscape-font-specification:Sawasdee;text-align:center;text-anchor:middle;stroke-width:0.22035424" id="path1036" inkscape:connector-curvature="0"></path> <path d="m 41.944839,285.87803 -0.357215,0.12481 q -0.09038,-0.28835 -0.30557,-0.43898 -0.215189,-0.15494 -0.460506,-0.15494 -0.28405,0 -0.486328,0.18076 -0.197975,0.18076 -0.197975,0.49063 0,0.16355 0.09038,0.29696 0.09038,0.13342 0.236709,0.2195 0.146329,0.0861 0.331392,0.17645 0.189367,0.0904 0.383037,0.16785 0.193671,0.0775 0.378734,0.19367 0.189367,0.1162 0.335696,0.24962 0.146329,0.13342 0.236709,0.34431 0.09038,0.21088 0.09038,0.47341 0,0.59823 -0.426075,0.97266 -0.426076,0.37013 -0.989873,0.37013 -0.245316,0 -0.469113,-0.0775 -0.223798,-0.0818 -0.413164,-0.23671 -0.189367,-0.15494 -0.322785,-0.41317 -0.133418,-0.25822 -0.172152,-0.58961 l 0.383038,-0.0559 q 0.06025,0.49063 0.34,0.74025 0.28405,0.24962 0.662784,0.24962 0.400253,0 0.710126,-0.26684 0.309873,-0.27114 0.309873,-0.69291 0,-0.2324 -0.116202,-0.40886 -0.116203,-0.18076 -0.301266,-0.29266 -0.180759,-0.11189 -0.404557,-0.21088 -0.223797,-0.099 -0.447594,-0.20228 -0.223797,-0.10329 -0.408861,-0.2238 -0.180759,-0.12481 -0.296961,-0.32278 -0.116203,-0.20228 -0.116203,-0.46051 0,-0.48202 0.318481,-0.76607 0.322784,-0.28405 0.761771,-0.28405 0.361519,0 0.675696,0.21949 0.314177,0.21519 0.447595,0.62835 z" style="font-style:normal;font-variant:normal;font-weight:normal;font-stretch:normal;line-height:1;font-family:Sawasdee;-inkscape-font-specification:Sawasdee;text-align:center;text-anchor:middle;stroke-width:0.22035424" id="path1038" inkscape:connector-curvature="0"></path> <path d="m 45.783822,285.87803 -0.357215,0.12481 q -0.09038,-0.28835 -0.305569,-0.43898 -0.21519,-0.15494 -0.460506,-0.15494 -0.28405,0 -0.486329,0.18076 -0.197974,0.18076 -0.197974,0.49063 0,0.16355 0.09038,0.29696 0.09038,0.13342 0.236709,0.2195 0.146329,0.0861 0.331392,0.17645 0.189367,0.0904 0.383038,0.16785 0.193671,0.0775 0.378734,0.19367 0.189367,0.1162 0.335696,0.24962 0.146329,0.13342 0.236708,0.34431 0.09038,0.21088 0.09038,0.47341 0,0.59823 -0.426076,0.97266 -0.426075,0.37013 -0.989872,0.37013 -0.245316,0 -0.469114,-0.0775 -0.223797,-0.0818 -0.413164,-0.23671 -0.189367,-0.15494 -0.322784,-0.41317 -0.133418,-0.25822 -0.172152,-0.58961 l 0.383037,-0.0559 q 0.06025,0.49063 0.34,0.74025 0.284051,0.24962 0.662784,0.24962 0.400253,0 0.710126,-0.26684 0.309874,-0.27114 0.309874,-0.69291 0,-0.2324 -0.116203,-0.40886 -0.116202,-0.18076 -0.301265,-0.29266 -0.18076,-0.11189 -0.404557,-0.21088 -0.223797,-0.099 -0.447595,-0.20228 -0.223797,-0.10329 -0.40886,-0.2238 -0.180759,-0.12481 -0.296962,-0.32278 -0.116202,-0.20228 -0.116202,-0.46051 0,-0.48202 0.31848,-0.76607 0.322785,-0.28405 0.761772,-0.28405 0.361519,0 0.675696,0.21949 0.314177,0.21519 0.447594,0.62835 z" style="font-style:normal;font-variant:normal;font-weight:normal;font-stretch:normal;line-height:1;font-family:Sawasdee;-inkscape-font-specification:Sawasdee;text-align:center;text-anchor:middle;stroke-width:0.22035424" id="path1040" inkscape:connector-curvature="0"></path> <path d="m 47.139519,284.07474 q 0,-0.14202 0.09899,-0.24531 0.103291,-0.10329 0.24962,-0.10329 0.142025,0 0.241012,0.10329 0.103291,0.10329 0.103291,0.24531 0,0.14633 -0.09899,0.24962 -0.09899,0.099 -0.245316,0.099 -0.146329,0 -0.24962,-0.099 -0.09899,-0.10329 -0.09899,-0.24962 z m 0.542278,5.39696 h -0.387342 v -4.36405 h 0.387342 z" style="font-style:normal;font-variant:normal;font-weight:normal;font-stretch:normal;line-height:1;font-family:Sawasdee;-inkscape-font-specification:Sawasdee;text-align:center;text-anchor:middle;stroke-width:0.22035424" id="path1042" inkscape:connector-curvature="0"></path> <path d="m 49.011668,285.10765 h 0.413165 q 0.08177,0.28406 0.08177,0.57671 v 0.65418 q 0.236708,-0.53797 0.654176,-0.91671 0.421772,-0.38304 0.817721,-0.38304 0.438987,0 0.740253,0.24532 0.305569,0.24532 0.438987,0.62835 0.137721,0.38304 0.137721,0.86507 v 2.69417 h -0.378734 v -2.69417 q 0,-0.23671 -0.04734,-0.45621 -0.04304,-0.21949 -0.142026,-0.43037 -0.09899,-0.21089 -0.296961,-0.3357 -0.193671,-0.12911 -0.460506,-0.12911 -0.253924,0 -0.529367,0.19797 -0.271139,0.19797 -0.473417,0.48633 -0.197975,0.28405 -0.331392,0.60683 -0.129114,0.32279 -0.129114,0.5681 v 2.18633 h -0.387342 v -3.78734 q 0,-0.37012 -0.107595,-0.57671 z" style="font-style:normal;font-variant:normal;font-weight:normal;font-stretch:normal;line-height:1;font-family:Sawasdee;-inkscape-font-specification:Sawasdee;text-align:center;text-anchor:middle;stroke-width:0.22035424" id="path1044" inkscape:connector-curvature="0"></path> <path d="m 57.219003,285.10765 h 0.413164 q -0.103291,0.19798 -0.103291,0.57671 v 3.78734 q 0,0.60253 -0.271139,1.11899 -0.266835,0.51645 -0.731645,0.81772 -0.46481,0.30557 -1.015695,0.30557 -0.757468,0 -1.316961,-0.55949 l 0.279746,-0.26684 q 0.456203,0.44329 1.05443,0.44329 0.662784,0 1.140505,-0.54228 0.477721,-0.54228 0.477721,-1.31696 v -1.11898 q -0.15924,0.46911 -0.641265,0.82632 -0.477721,0.35722 -0.976961,0.35722 -0.546582,0 -1.007088,-0.30557 -0.456202,-0.30557 -0.718733,-0.82203 -0.258228,-0.52075 -0.258228,-1.12329 0,-0.60253 0.258228,-1.11468 0.262531,-0.51645 0.718733,-0.82202 0.460506,-0.30988 1.007088,-0.30988 0.490632,0 0.972657,0.37013 0.482025,0.36582 0.645569,0.81772 v -0.54228 q 0,-0.32278 0.07317,-0.57671 z m -0.09899,2.17772 q 0,-0.77468 -0.482025,-1.31696 -0.477721,-0.54227 -1.136202,-0.54227 -0.662784,0 -1.140505,0.54227 -0.477721,0.54228 -0.477721,1.31696 0,0.77469 0.477721,1.32127 0.482025,0.54658 1.140505,0.54658 0.658481,0 1.136202,-0.54658 0.482025,-0.55089 0.482025,-1.32127 z" style="font-style:normal;font-variant:normal;font-weight:normal;font-stretch:normal;line-height:1;font-family:Sawasdee;-inkscape-font-specification:Sawasdee;text-align:center;text-anchor:middle;stroke-width:0.22035424" id="path1046" inkscape:connector-curvature="0"></path> </g> </g>
</svg>
